<svg width="355" height="171" version="1.1" xmlns="http://www.w3.org/2000/svg" desc="Created with ImageTracer.java version 1.1.2" ><path desc="l 3 p 0" fill="rgb(253,253,253)" stroke="rgb(253,253,253)" stroke-width="1" opacity="1.0" d="M 0.5 0.0 L 156.0 0.5 L 154.0 15.5 L 153.0 26.5 L 150.0 42.5 L 147.5 53.0 L 144.5 58.0 L 134.5 61.0 Q 129.0 63.5 119.5 62.0 Q 104.2 59.3 97.0 48.5 L 92.0 39.5 Q 89.7 32.8 91.0 22.5 Q 93.2 12.2 101.0 7.5 L 98.5 7.0 L 70.5 17.0 Q 38.7 29.2 16.0 50.5 Q 4.1 61.1 0.5 80.0 L 0.5 0.0 Z" /><path desc="l 0 p 0" fill="rgb(0,0,0)" stroke="rgb(0,0,0)" stroke-width="1" opacity="1.0" d="M 156.5 0.0 L 162.0 8.5 L 167.5 20.0 L 181.5 20.0 Q 186.8 21.3 188.0 18.5 L 192.0 9.5 L 197.5 1.0 L 199.0 1.5 L 200.0 15.5 L 202.0 31.5 L 204.0 45.5 L 208.5 58.0 L 219.5 62.0 L 233.5 63.0 L 241.5 61.0 L 249.0 57.5 L 256.0 51.5 L 261.5 42.0 Q 265.9 34.9 264.0 21.5 Q 261.7 12.8 255.0 8.5 L 256.5 8.0 L 272.0 13.5 L 291.5 22.0 Q 321.8 34.2 342.0 56.5 L 346.5 63.0 L 350.5 71.0 Q 356.3 81.3 354.0 99.5 Q 348.7 125.2 331.5 139.0 Q 313.1 157.1 284.5 165.0 L 286.0 162.5 L 290.0 154.5 L 294.0 145.5 L 295.0 136.5 Q 293.8 130.8 289.5 128.0 L 280.5 124.0 Q 277.0 121.5 269.5 123.0 L 264.5 124.0 L 252.5 131.0 L 240.5 141.0 Q 238.4 132.1 231.5 128.0 L 224.0 125.5 L 216.5 125.0 Q 208.2 126.2 204.0 131.5 L 195.0 140.5 Q 184.6 153.6 177.5 170.0 L 176.0 169.5 Q 167.1 144.4 148.5 129.0 L 142.5 126.0 L 138.5 125.0 L 129.5 125.0 Q 121.8 126.8 118.0 132.5 L 114.5 140.0 Q 108.0 132.5 98.5 128.0 L 90.5 124.0 L 84.0 122.5 L 77.5 122.0 L 71.5 124.0 Q 65.0 125.5 62.0 130.5 Q 58.0 135.5 60.0 146.5 L 69.0 163.5 L 67.5 164.0 Q 50.4 158.6 37.5 149.0 L 23.0 138.5 L 22.5 137.0 L 18.0 133.5 L 7.5 118.0 Q 2.3 110.2 1.0 98.5 L 0.0 84.5 Q 4.3 59.8 20.5 47.0 Q 52.2 20.2 98.5 8.0 L 96.0 11.5 L 91.0 22.5 Q 88.7 25.7 90.0 32.5 Q 92.9 48.1 103.5 56.0 Q 112.8 64.7 133.5 62.0 L 138.5 61.0 L 147.0 56.5 Q 152.2 44.2 153.0 27.5 L 156.5 0.0 Z" /><path desc="l 9 p 0" fill="rgb(116,116,116)" stroke="rgb(116,116,116)" stroke-width="1" opacity="1.0" d="M 157.5 0.0 L 158.5 2.0 L 157.5 0.0 Z" /><path desc="l 3 p 1" fill="rgb(253,253,253)" stroke="rgb(253,253,253)" stroke-width="1" opacity="1.0" d="M 158.5 0.0 L 197.0 0.5 L 185.5 20.0 L 174.5 20.0 L 167.0 18.5 L 158.5 0.0 Z" /><path desc="l 9 p 1" fill="rgb(116,116,116)" stroke="rgb(116,116,116)" stroke-width="1" opacity="1.0" d="M 197.5 0.0 L 195.5 3.0 L 197.5 0.0 Z" /><path desc="l 3 p 2" fill="rgb(253,253,253)" stroke="rgb(253,253,253)" stroke-width="1" opacity="1.0" d="M 199.5 0.0 L 355.0 0.5 L 354.5 86.0 Q 353.5 70.5 346.0 61.5 L 334.5 48.0 Q 302.6 19.9 254.5 8.0 L 254.5 9.0 L 257.0 10.5 Q 265.3 16.7 264.0 32.5 Q 261.1 48.1 250.5 56.0 Q 241.5 64.5 221.5 62.0 L 216.5 61.0 L 207.0 55.5 L 203.0 37.5 L 202.0 30.5 L 201.0 25.5 L 200.5 15.0 L 199.5 0.0 Z" /><path desc="l 11 p 0" fill="rgb(110,110,110)" stroke="rgb(110,110,110)" stroke-width="1" opacity="1.0" d="M 155.5 4.0 L 156.0 6.5 L 155.0 6.5 L 155.5 4.0 Z" /><path desc="l 9 p 2" fill="rgb(116,116,116)" stroke="rgb(116,116,116)" stroke-width="1" opacity="1.0" d="M 199.5 5.0 L 200.0 7.5 L 199.0 7.5 L 199.5 5.0 Z" /><path desc="l 9 p 3" fill="rgb(116,116,116)" stroke="rgb(116,116,116)" stroke-width="1" opacity="1.0" d="M 98.5 7.0 L 101.0 7.5 L 97.0 10.5 Q 100.1 8.8 98.5 7.0 Z" /><path desc="l 11 p 1" fill="rgb(110,110,110)" stroke="rgb(110,110,110)" stroke-width="1" opacity="1.0" d="M 199.5 8.0 L 200.0 10.5 L 199.0 10.5 L 199.5 8.0 Z" /><path desc="l 9 p 4" fill="rgb(116,116,116)" stroke="rgb(116,116,116)" stroke-width="1" opacity="1.0" d="M 154.5 10.0 L 155.0 12.5 L 154.0 12.5 L 154.5 10.0 Z" /><path desc="l 9 p 5" fill="rgb(116,116,116)" stroke="rgb(116,116,116)" stroke-width="1" opacity="1.0" d="M 257.5 11.0 L 259.5 14.0 L 257.5 11.0 Z" /><path desc="l 11 p 2" fill="rgb(110,110,110)" stroke="rgb(110,110,110)" stroke-width="1" opacity="1.0" d="M 154.5 13.0 L 155.0 15.5 L 154.0 15.5 L 154.5 13.0 Z" /><path desc="l 9 p 6" fill="rgb(116,116,116)" stroke="rgb(116,116,116)" stroke-width="1" opacity="1.0" d="M 200.5 15.0 L 201.0 17.5 L 200.0 17.5 L 200.5 15.0 Z" /><path desc="l 11 p 3" fill="rgb(110,110,110)" stroke="rgb(110,110,110)" stroke-width="1" opacity="1.0" d="M 90.5 24.0 L 91.0 32.5 L 90.0 32.5 L 90.5 24.0 Z" /><path desc="l 11 p 4" fill="rgb(110,110,110)" stroke="rgb(110,110,110)" stroke-width="1" opacity="1.0" d="M 324.5 40.0 L 326.5 43.0 L 324.5 40.0 Z" /><path desc="l 9 p 7" fill="rgb(116,116,116)" stroke="rgb(116,116,116)" stroke-width="1" opacity="1.0" d="M 25.5 42.0 L 23.5 45.0 L 25.5 42.0 Z" /><path desc="l 9 p 8" fill="rgb(116,116,116)" stroke="rgb(116,116,116)" stroke-width="1" opacity="1.0" d="M 327.5 42.0 L 329.5 45.0 L 327.5 42.0 Z" /><path desc="l 11 p 5" fill="rgb(110,110,110)" stroke="rgb(110,110,110)" stroke-width="1" opacity="1.0" d="M 22.5 45.0 L 21.5 47.0 L 22.5 45.0 Z" /><path desc="l 11 p 6" fill="rgb(110,110,110)" stroke="rgb(110,110,110)" stroke-width="1" opacity="1.0" d="M 330.5 45.0 L 331.5 47.0 L 330.5 45.0 Z" /><path desc="l 9 p 9" fill="rgb(116,116,116)" stroke="rgb(116,116,116)" stroke-width="1" opacity="1.0" d="M 334.5 48.0 L 340.5 55.0 L 334.5 48.0 Z" /><path desc="l 9 p 10" fill="rgb(116,116,116)" stroke="rgb(116,116,116)" stroke-width="1" opacity="1.0" d="M 17.5 49.0 L 16.5 51.0 L 17.5 49.0 Z" /><path desc="l 11 p 7" fill="rgb(110,110,110)" stroke="rgb(110,110,110)" stroke-width="1" opacity="1.0" d="M 97.5 49.0 L 98.5 51.0 L 97.5 49.0 Z" /><path desc="l 9 p 11" fill="rgb(116,116,116)" stroke="rgb(116,116,116)" stroke-width="1" opacity="1.0" d="M 99.5 51.0 L 101.5 54.0 L 99.5 51.0 Z" /><path desc="l 9 p 12" fill="rgb(116,116,116)" stroke="rgb(116,116,116)" stroke-width="1" opacity="1.0" d="M 255.5 51.0 L 254.5 53.0 L 255.5 51.0 Z" /><path desc="l 11 p 8" fill="rgb(110,110,110)" stroke="rgb(110,110,110)" stroke-width="1" opacity="1.0" d="M 14.5 53.0 L 12.5 56.0 L 14.5 53.0 Z" /><path desc="l 11 p 9" fill="rgb(110,110,110)" stroke="rgb(110,110,110)" stroke-width="1" opacity="1.0" d="M 253.5 53.0 L 251.5 56.0 L 253.5 53.0 Z" /><path desc="l 11 p 10" fill="rgb(110,110,110)" stroke="rgb(110,110,110)" stroke-width="1" opacity="1.0" d="M 102.5 54.0 L 103.5 56.0 L 102.5 54.0 Z" /><path desc="l 9 p 13" fill="rgb(116,116,116)" stroke="rgb(116,116,116)" stroke-width="1" opacity="1.0" d="M 11.5 56.0 L 10.5 58.0 L 11.5 56.0 Z" /><path desc="l 11 p 11" fill="rgb(110,110,110)" stroke="rgb(110,110,110)" stroke-width="1" opacity="1.0" d="M 146.5 56.0 L 145.5 58.0 L 146.5 56.0 Z" /><path desc="l 9 p 14" fill="rgb(116,116,116)" stroke="rgb(116,116,116)" stroke-width="1" opacity="1.0" d="M 209.5 57.0 L 210.5 59.0 L 209.5 57.0 Z" /><path desc="l 11 p 12" fill="rgb(110,110,110)" stroke="rgb(110,110,110)" stroke-width="1" opacity="1.0" d="M 248.5 57.0 L 247.5 59.0 L 248.5 57.0 Z" /><path desc="l 9 p 15" fill="rgb(116,116,116)" stroke="rgb(116,116,116)" stroke-width="1" opacity="1.0" d="M 343.5 58.0 L 344.5 60.0 L 343.5 58.0 Z" /><path desc="l 9 p 16" fill="rgb(116,116,116)" stroke="rgb(116,116,116)" stroke-width="1" opacity="1.0" d="M 9.5 59.0 L 8.5 61.0 L 9.5 59.0 Z" /><path desc="l 11 p 13" fill="rgb(110,110,110)" stroke="rgb(110,110,110)" stroke-width="1" opacity="1.0" d="M 226.5 62.0 L 234.0 62.5 L 226.5 63.0 L 226.5 62.0 Z" /><path desc="l 9 p 17" fill="rgb(116,116,116)" stroke="rgb(116,116,116)" stroke-width="1" opacity="1.0" d="M 354.5 86.0 L 355.0 95.5 L 354.0 95.5 L 354.5 86.0 Z" /><path desc="l 11 p 14" fill="rgb(110,110,110)" stroke="rgb(110,110,110)" stroke-width="1" opacity="1.0" d="M 0.5 91.0 L 1.0 93.5 L 0.0 93.5 L 0.5 91.0 Z" /><path desc="l 3 p 3" fill="rgb(253,253,253)" stroke="rgb(253,253,253)" stroke-width="1" opacity="1.0" d="M 0.5 96.0 Q 2.8 116.8 14.0 128.5 L 28.5 144.0 Q 45.6 157.9 69.5 165.0 L 70.0 162.5 L 62.5 151.0 Q 58.8 145.8 60.0 135.5 L 67.5 126.0 Q 73.6 121.6 85.5 123.0 Q 104.0 128.0 114.5 141.0 Q 117.0 132.5 123.5 128.0 L 131.0 125.5 L 137.5 125.0 Q 152.4 129.6 160.0 141.5 L 168.0 154.5 L 176.0 170.5 L 0.5 171.0 L 0.5 96.0 Z" /><path desc="l 3 p 4" fill="rgb(253,253,253)" stroke="rgb(253,253,253)" stroke-width="1" opacity="1.0" d="M 354.5 96.0 L 355.0 170.5 L 178.5 171.0 L 179.0 169.5 Q 187.0 148.5 201.5 134.0 L 207.0 129.5 Q 212.8 124.3 225.5 126.0 L 235.0 131.5 L 240.5 141.0 L 252.5 131.0 Q 260.6 123.6 275.5 123.0 L 282.5 125.0 Q 289.7 126.8 293.0 132.5 Q 295.7 136.3 294.0 144.5 Q 290.4 156.9 283.0 165.5 L 285.5 166.0 L 302.5 159.0 Q 324.0 149.0 339.0 132.5 L 347.0 120.5 L 352.5 107.0 Q 355.0 103.0 354.5 96.0 Z" /><path desc="l 11 p 15" fill="rgb(110,110,110)" stroke="rgb(110,110,110)" stroke-width="1" opacity="1.0" d="M 80.5 122.0 L 84.0 122.5 L 80.5 123.0 L 80.5 122.0 Z" /><path desc="l 9 p 18" fill="rgb(116,116,116)" stroke="rgb(116,116,116)" stroke-width="1" opacity="1.0" d="M 216.5 125.0 L 224.0 125.5 L 216.5 126.0 L 216.5 125.0 Z" /><path desc="l 9 p 19" fill="rgb(116,116,116)" stroke="rgb(116,116,116)" stroke-width="1" opacity="1.0" d="M 65.5 127.0 L 62.5 131.0 L 65.5 127.0 Z" /><path desc="l 9 p 20" fill="rgb(116,116,116)" stroke="rgb(116,116,116)" stroke-width="1" opacity="1.0" d="M 146.5 128.0 L 147.5 130.0 L 146.5 128.0 Z" /><path desc="l 9 p 21" fill="rgb(116,116,116)" stroke="rgb(116,116,116)" stroke-width="1" opacity="1.0" d="M 341.5 128.0 L 340.5 130.0 L 341.5 128.0 Z" /><path desc="l 9 p 22" fill="rgb(116,116,116)" stroke="rgb(116,116,116)" stroke-width="1" opacity="1.0" d="M 121.5 129.0 L 119.5 132.0 L 121.5 129.0 Z" /><path desc="l 11 p 16" fill="rgb(110,110,110)" stroke="rgb(110,110,110)" stroke-width="1" opacity="1.0" d="M 148.5 129.0 L 149.5 131.0 L 148.5 129.0 Z" /><path desc="l 11 p 17" fill="rgb(110,110,110)" stroke="rgb(110,110,110)" stroke-width="1" opacity="1.0" d="M 206.5 129.0 L 205.5 131.0 L 206.5 129.0 Z" /><path desc="l 9 p 23" fill="rgb(116,116,116)" stroke="rgb(116,116,116)" stroke-width="1" opacity="1.0" d="M 232.5 129.0 L 233.5 131.0 L 232.5 129.0 Z" /><path desc="l 9 p 24" fill="rgb(116,116,116)" stroke="rgb(116,116,116)" stroke-width="1" opacity="1.0" d="M 254.5 129.0 L 253.5 131.0 L 254.5 129.0 Z" /><path desc="l 9 p 25" fill="rgb(116,116,116)" stroke="rgb(116,116,116)" stroke-width="1" opacity="1.0" d="M 290.5 129.0 L 291.5 131.0 L 290.5 129.0 Z" /><path desc="l 11 p 18" fill="rgb(110,110,110)" stroke="rgb(110,110,110)" stroke-width="1" opacity="1.0" d="M 15.5 130.0 L 17.5 133.0 L 15.5 130.0 Z" /><path desc="l 9 p 26" fill="rgb(116,116,116)" stroke="rgb(116,116,116)" stroke-width="1" opacity="1.0" d="M 150.5 131.0 L 158.5 140.0 L 150.5 131.0 Z" /><path desc="l 9 p 27" fill="rgb(116,116,116)" stroke="rgb(116,116,116)" stroke-width="1" opacity="1.0" d="M 204.5 131.0 L 202.5 134.0 L 204.5 131.0 Z" /><path desc="l 11 p 19" fill="rgb(110,110,110)" stroke="rgb(110,110,110)" stroke-width="1" opacity="1.0" d="M 105.5 132.0 L 106.5 134.0 L 105.5 132.0 Z" /><path desc="l 9 p 28" fill="rgb(116,116,116)" stroke="rgb(116,116,116)" stroke-width="1" opacity="1.0" d="M 235.5 132.0 L 236.5 134.0 L 235.5 132.0 Z" /><path desc="l 9 p 29" fill="rgb(116,116,116)" stroke="rgb(116,116,116)" stroke-width="1" opacity="1.0" d="M 250.5 132.0 L 249.5 134.0 L 250.5 132.0 Z" /><path desc="l 9 p 30" fill="rgb(116,116,116)" stroke="rgb(116,116,116)" stroke-width="1" opacity="1.0" d="M 338.5 132.0 L 330.5 141.0 L 338.5 132.0 Z" /><path desc="l 9 p 31" fill="rgb(116,116,116)" stroke="rgb(116,116,116)" stroke-width="1" opacity="1.0" d="M 107.5 134.0 L 108.5 136.0 L 107.5 134.0 Z" /><path desc="l 9 p 32" fill="rgb(116,116,116)" stroke="rgb(116,116,116)" stroke-width="1" opacity="1.0" d="M 245.5 136.0 L 241.5 141.0 L 245.5 136.0 Z" /><path desc="l 11 p 20" fill="rgb(110,110,110)" stroke="rgb(110,110,110)" stroke-width="1" opacity="1.0" d="M 294.5 136.0 L 295.0 143.5 L 294.0 143.5 L 294.5 136.0 Z" /><path desc="l 11 p 21" fill="rgb(110,110,110)" stroke="rgb(110,110,110)" stroke-width="1" opacity="1.0" d="M 111.5 137.0 L 113.5 140.0 L 111.5 137.0 Z" /><path desc="l 9 p 33" fill="rgb(116,116,116)" stroke="rgb(116,116,116)" stroke-width="1" opacity="1.0" d="M 198.5 137.0 L 196.5 140.0 L 198.5 137.0 Z" /><path desc="l 11 p 22" fill="rgb(110,110,110)" stroke="rgb(110,110,110)" stroke-width="1" opacity="1.0" d="M 24.5 139.0 L 26.5 142.0 L 24.5 139.0 Z" /><path desc="l 11 p 23" fill="rgb(110,110,110)" stroke="rgb(110,110,110)" stroke-width="1" opacity="1.0" d="M 330.5 139.0 L 327.5 143.0 L 330.5 139.0 Z" /><path desc="l 9 p 34" fill="rgb(116,116,116)" stroke="rgb(116,116,116)" stroke-width="1" opacity="1.0" d="M 27.5 142.0 L 28.5 144.0 L 27.5 142.0 Z" /><path desc="l 9 p 35" fill="rgb(116,116,116)" stroke="rgb(116,116,116)" stroke-width="1" opacity="1.0" d="M 194.5 142.0 L 193.5 144.0 L 194.5 142.0 Z" /><path desc="l 11 p 24" fill="rgb(110,110,110)" stroke="rgb(110,110,110)" stroke-width="1" opacity="1.0" d="M 161.5 143.0 L 162.5 145.0 L 161.5 143.0 Z" /><path desc="l 9 p 36" fill="rgb(116,116,116)" stroke="rgb(116,116,116)" stroke-width="1" opacity="1.0" d="M 326.5 143.0 L 325.5 145.0 L 326.5 143.0 Z" /><path desc="l 9 p 37" fill="rgb(116,116,116)" stroke="rgb(116,116,116)" stroke-width="1" opacity="1.0" d="M 162.5 145.0 L 163.5 147.0 L 162.5 145.0 Z" /><path desc="l 11 p 25" fill="rgb(110,110,110)" stroke="rgb(110,110,110)" stroke-width="1" opacity="1.0" d="M 323.5 145.0 L 322.5 147.0 L 323.5 145.0 Z" /><path desc="l 11 p 26" fill="rgb(110,110,110)" stroke="rgb(110,110,110)" stroke-width="1" opacity="1.0" d="M 33.5 146.0 L 34.5 148.0 L 33.5 146.0 Z" /><path desc="l 11 p 27" fill="rgb(110,110,110)" stroke="rgb(110,110,110)" stroke-width="1" opacity="1.0" d="M 190.5 147.0 L 189.5 149.0 L 190.5 147.0 Z" /><path desc="l 9 p 38" fill="rgb(116,116,116)" stroke="rgb(116,116,116)" stroke-width="1" opacity="1.0" d="M 164.5 148.0 L 165.5 150.0 L 164.5 148.0 Z" /><path desc="l 9 p 39" fill="rgb(116,116,116)" stroke="rgb(116,116,116)" stroke-width="1" opacity="1.0" d="M 286.5 160.0 L 285.5 162.0 L 286.5 160.0 Z" /><path desc="l 9 p 40" fill="rgb(116,116,116)" stroke="rgb(116,116,116)" stroke-width="1" opacity="1.0" d="M 68.5 161.0 L 69.5 163.0 L 68.5 161.0 Z" /><path desc="l 9 p 41" fill="rgb(116,116,116)" stroke="rgb(116,116,116)" stroke-width="1" opacity="1.0" d="M 284.5 163.0 L 284.0 164.5 L 283.5 166.0 L 283.0 164.5 L 284.5 163.0 Z" /></svg>