<svg width="136" height="137" version="1.1" xmlns="http://www.w3.org/2000/svg" desc="Created with ImageTracer.java version 1.1.2" ><path desc="l 1 p 0" fill="rgb(177,177,177)" stroke="rgb(177,177,177)" stroke-width="1" opacity="1.0" d="M 0.5 0.0 L 136.0 0.5 L 135.5 137.0 L 0.0 136.5 L 0.5 0.0 Z" /><path desc="l 5 p 0" fill="rgb(173,173,173)" stroke="rgb(173,173,173)" stroke-width="1" opacity="1.0" d="M 90.5 29.0 L 92.0 29.5 L 89.5 31.0 L 90.5 29.0 Z" /><path desc="l 0 p 0" fill="rgb(162,162,162)" stroke="rgb(162,162,162)" stroke-width="1" opacity="1.0" d="M 92.5 29.0 L 94.0 29.5 L 86.5 34.0 L 87.5 32.0 L 92.5 29.0 Z" /><path desc="l 3 p 0" fill="rgb(119,119,119)" stroke="rgb(119,119,119)" stroke-width="1" opacity="1.0" d="M 94.5 29.0 L 97.0 30.5 L 96.5 33.0 L 94.0 31.5 L 96.0 30.5 L 94.5 29.0 Z" /><path desc="l 0 p 1" fill="rgb(162,162,162)" stroke="rgb(162,162,162)" stroke-width="1" opacity="1.0" d="M 96.5 29.0 L 105.0 34.5 L 104.5 114.0 L 104.0 55.5 L 104.0 39.5 Q 105.3 34.3 102.5 33.0 Q 96.9 32.2 96.5 29.0 Z" /><path desc="l 6 p 0" fill="rgb(66,66,66)" stroke="rgb(66,66,66)" stroke-width="1" opacity="1.0" d="M 93.5 30.0 Q 100.6 30.9 104.0 35.5 L 104.0 92.5 L 104.0 107.5 Q 105.3 112.8 102.5 114.0 L 94.5 118.0 L 27.0 78.5 L 27.0 71.5 Q 26.5 67.5 29.5 67.0 L 93.5 30.0 Z" /><path desc="l 5 p 1" fill="rgb(173,173,173)" stroke="rgb(173,173,173)" stroke-width="1" opacity="1.0" d="M 99.5 30.0 L 102.0 31.5 L 100.5 31.0 L 99.5 30.0 Z" /><path desc="l 3 p 1" fill="rgb(119,119,119)" stroke="rgb(119,119,119)" stroke-width="1" opacity="1.0" d="M 90.5 31.0 L 89.5 33.0 L 90.5 31.0 Z" /><path desc="l 5 p 2" fill="rgb(173,173,173)" stroke="rgb(173,173,173)" stroke-width="1" opacity="1.0" d="M 84.5 32.0 L 87.0 32.5 L 83.5 35.0 L 84.0 33.5 L 84.5 32.0 Z" /><path desc="l 3 p 2" fill="rgb(119,119,119)" stroke="rgb(119,119,119)" stroke-width="1" opacity="1.0" d="M 92.5 32.0 L 91.5 34.0 L 92.5 32.0 Z" /><path desc="l 0 p 2" fill="rgb(162,162,162)" stroke="rgb(162,162,162)" stroke-width="1" opacity="1.0" d="M 93.5 32.0 L 96.0 32.5 L 92.5 34.0 L 93.5 32.0 Z" /><path desc="l 5 p 3" fill="rgb(173,173,173)" stroke="rgb(173,173,173)" stroke-width="1" opacity="1.0" d="M 103.5 32.0 L 105.0 32.5 L 104.5 34.0 L 103.5 32.0 Z" /><path desc="l 1 p 1" fill="rgb(177,177,177)" stroke="rgb(177,177,177)" stroke-width="1" opacity="1.0" d="M 93.5 33.0 L 96.0 34.5 L 94.5 38.0 L 86.0 41.5 L 85.5 43.0 L 84.0 42.5 L 83.5 44.0 L 81.0 44.5 L 80.5 46.0 L 74.0 48.5 L 73.5 50.0 L 59.0 57.5 L 53.0 60.5 L 46.0 62.5 L 47.0 64.5 L 45.0 65.5 L 41.0 68.5 L 40.5 72.0 Q 36.0 73.0 35.0 70.5 L 34.0 68.5 L 39.5 65.0 L 41.0 65.5 L 41.5 63.0 L 49.5 60.0 L 54.0 56.5 L 62.0 52.5 L 62.5 51.0 L 83.0 40.5 L 83.5 39.0 L 93.0 34.5 L 93.5 33.0 Z" /><path desc="l 5 p 4" fill="rgb(173,173,173)" stroke="rgb(173,173,173)" stroke-width="1" opacity="1.0" d="M 95.5 33.0 L 99.0 34.5 L 95.0 37.5 L 96.0 34.5 L 95.5 33.0 Z" /><path desc="l 3 p 3" fill="rgb(119,119,119)" stroke="rgb(119,119,119)" stroke-width="1" opacity="1.0" d="M 102.5 33.0 L 103.5 35.0 L 102.5 33.0 Z" /><path desc="l 0 p 3" fill="rgb(162,162,162)" stroke="rgb(162,162,162)" stroke-width="1" opacity="1.0" d="M 84.5 34.0 L 83.5 36.0 L 74.5 41.0 L 75.5 39.0 L 84.5 34.0 Z" /><path desc="l 3 p 4" fill="rgb(119,119,119)" stroke="rgb(119,119,119)" stroke-width="1" opacity="1.0" d="M 85.5 34.0 L 84.5 36.0 L 85.5 34.0 Z" /><path desc="l 0 p 4" fill="rgb(162,162,162)" stroke="rgb(162,162,162)" stroke-width="1" opacity="1.0" d="M 99.5 34.0 L 100.0 35.5 L 96.5 38.0 L 99.5 34.0 Z" /><path desc="l 3 p 5" fill="rgb(119,119,119)" stroke="rgb(119,119,119)" stroke-width="1" opacity="1.0" d="M 100.5 34.0 L 101.0 35.5 L 100.5 37.0 L 103.0 37.5 L 103.0 92.5 L 103.0 106.5 Q 104.3 111.8 101.5 113.0 L 102.0 111.5 L 101.5 38.0 L 99.5 39.0 L 100.0 35.5 L 100.5 34.0 Z" /><path desc="l 5 p 5" fill="rgb(173,173,173)" stroke="rgb(173,173,173)" stroke-width="1" opacity="1.0" d="M 80.5 35.0 L 82.0 35.5 L 78.5 38.0 L 78.0 36.5 L 80.5 35.0 Z" /><path desc="l 0 p 5" fill="rgb(162,162,162)" stroke="rgb(162,162,162)" stroke-width="1" opacity="1.0" d="M 86.5 36.0 L 85.5 38.0 L 86.5 36.0 Z" /><path desc="l 5 p 6" fill="rgb(173,173,173)" stroke="rgb(173,173,173)" stroke-width="1" opacity="1.0" d="M 87.5 36.0 L 86.5 38.0 L 87.5 36.0 Z" /><path desc="l 5 p 7" fill="rgb(173,173,173)" stroke="rgb(173,173,173)" stroke-width="1" opacity="1.0" d="M 75.5 38.0 L 77.0 38.5 L 73.5 41.0 L 75.5 38.0 Z" /><path desc="l 5 p 8" fill="rgb(173,173,173)" stroke="rgb(173,173,173)" stroke-width="1" opacity="1.0" d="M 92.5 38.0 L 94.0 38.5 L 89.5 41.0 L 90.5 39.0 L 92.5 38.0 Z" /><path desc="l 0 p 6" fill="rgb(162,162,162)" stroke="rgb(162,162,162)" stroke-width="1" opacity="1.0" d="M 94.5 38.0 L 93.5 40.0 L 92.0 39.5 L 94.5 38.0 Z" /><path desc="l 0 p 7" fill="rgb(162,162,162)" stroke="rgb(162,162,162)" stroke-width="1" opacity="1.0" d="M 100.5 38.0 L 102.0 38.5 L 101.5 42.0 L 100.5 38.0 Z" /><path desc="l 3 p 6" fill="rgb(119,119,119)" stroke="rgb(119,119,119)" stroke-width="1" opacity="1.0" d="M 80.5 39.0 L 79.5 41.0 L 80.5 39.0 Z" /><path desc="l 0 p 8" fill="rgb(162,162,162)" stroke="rgb(162,162,162)" stroke-width="1" opacity="1.0" d="M 81.5 39.0 L 80.5 41.0 L 81.5 39.0 Z" /><path desc="l 5 p 9" fill="rgb(173,173,173)" stroke="rgb(173,173,173)" stroke-width="1" opacity="1.0" d="M 82.5 39.0 L 83.0 40.5 L 81.5 41.0 L 82.5 39.0 Z" /><path desc="l 5 p 10" fill="rgb(173,173,173)" stroke="rgb(173,173,173)" stroke-width="1" opacity="1.0" d="M 99.5 39.0 L 98.5 41.0 L 97.0 40.5 L 99.5 39.0 Z" /><path desc="l 1 p 2" fill="rgb(177,177,177)" stroke="rgb(177,177,177)" stroke-width="1" opacity="1.0" d="M 100.5 39.0 L 101.0 110.5 L 97.5 113.0 L 97.0 66.5 L 97.0 54.5 Q 97.9 49.1 95.5 47.0 L 91.5 49.0 L 90.0 48.5 L 89.5 50.0 L 87.0 50.5 L 86.5 52.0 L 77.0 57.5 L 76.5 88.0 Q 75.3 85.8 74.0 88.5 L 73.5 90.0 L 72.5 62.0 L 69.5 61.0 Q 68.1 64.1 63.0 63.5 L 63.5 65.0 Q 60.2 67.7 53.5 67.0 L 53.5 66.0 L 59.0 65.5 L 57.0 64.5 L 60.5 62.0 L 62.5 63.0 L 63.5 60.0 L 74.0 55.5 L 74.5 54.0 L 80.0 52.5 L 80.5 51.0 L 83.0 50.5 L 84.5 48.0 L 90.5 45.0 L 100.5 39.0 Z" /><path desc="l 0 p 9" fill="rgb(162,162,162)" stroke="rgb(162,162,162)" stroke-width="1" opacity="1.0" d="M 90.5 40.0 L 89.5 42.0 L 87.5 43.0 L 88.5 41.0 L 90.5 40.0 Z" /><path desc="l 3 p 7" fill="rgb(119,119,119)" stroke="rgb(119,119,119)" stroke-width="1" opacity="1.0" d="M 91.5 40.0 L 94.5 41.0 L 96.0 40.5 L 92.5 43.0 L 92.5 41.0 L 90.5 42.0 L 91.5 40.0 Z" /><path desc="l 0 p 10" fill="rgb(162,162,162)" stroke="rgb(162,162,162)" stroke-width="1" opacity="1.0" d="M 96.5 40.0 L 95.5 42.0 L 96.5 40.0 Z" /><path desc="l 0 p 11" fill="rgb(162,162,162)" stroke="rgb(162,162,162)" stroke-width="1" opacity="1.0" d="M 71.5 41.0 L 73.0 41.5 L 60.5 49.0 L 61.5 47.0 L 71.5 41.0 Z" /><path desc="l 5 p 11" fill="rgb(173,173,173)" stroke="rgb(173,173,173)" stroke-width="1" opacity="1.0" d="M 86.5 41.0 L 88.0 41.5 L 86.0 42.5 L 86.5 41.0 Z" /><path desc="l 0 p 12" fill="rgb(162,162,162)" stroke="rgb(162,162,162)" stroke-width="1" opacity="1.0" d="M 76.5 42.0 L 75.5 44.0 L 73.5 45.0 L 74.5 43.0 L 76.5 42.0 Z" /><path desc="l 5 p 12" fill="rgb(173,173,173)" stroke="rgb(173,173,173)" stroke-width="1" opacity="1.0" d="M 77.5 42.0 L 76.5 44.0 L 77.5 42.0 Z" /><path desc="l 5 p 13" fill="rgb(173,173,173)" stroke="rgb(173,173,173)" stroke-width="1" opacity="1.0" d="M 93.5 42.0 L 95.0 42.5 L 87.5 47.0 L 87.5 46.0 L 93.5 42.0 Z" /><path desc="l 5 p 14" fill="rgb(173,173,173)" stroke="rgb(173,173,173)" stroke-width="1" opacity="1.0" d="M 101.5 42.0 L 102.0 110.5 L 99.0 112.5 Q 102.0 111.5 101.0 106.5 L 101.0 93.5 L 101.5 42.0 Z" /><path desc="l 3 p 8" fill="rgb(119,119,119)" stroke="rgb(119,119,119)" stroke-width="1" opacity="1.0" d="M 73.5 43.0 L 72.5 45.0 L 73.5 43.0 Z" /><path desc="l 0 p 13" fill="rgb(162,162,162)" stroke="rgb(162,162,162)" stroke-width="1" opacity="1.0" d="M 85.5 43.0 L 84.5 45.0 L 82.5 46.0 L 83.5 44.0 L 85.5 43.0 Z" /><path desc="l 3 p 9" fill="rgb(119,119,119)" stroke="rgb(119,119,119)" stroke-width="1" opacity="1.0" d="M 86.5 43.0 L 85.5 45.0 L 86.5 43.0 Z" /><path desc="l 5 p 15" fill="rgb(173,173,173)" stroke="rgb(173,173,173)" stroke-width="1" opacity="1.0" d="M 65.5 44.0 L 64.5 46.0 L 62.5 47.0 L 62.0 45.5 L 65.5 44.0 Z" /><path desc="l 5 p 16" fill="rgb(173,173,173)" stroke="rgb(173,173,173)" stroke-width="1" opacity="1.0" d="M 74.5 44.0 L 73.5 46.0 L 69.5 48.0 L 70.5 46.0 L 74.5 44.0 Z" /><path desc="l 5 p 17" fill="rgb(173,173,173)" stroke="rgb(173,173,173)" stroke-width="1" opacity="1.0" d="M 81.5 44.0 L 83.0 44.5 L 81.0 45.5 L 81.5 44.0 Z" /><path desc="l 0 p 14" fill="rgb(162,162,162)" stroke="rgb(162,162,162)" stroke-width="1" opacity="1.0" d="M 89.5 44.0 L 88.5 46.0 L 86.5 47.0 L 87.5 45.0 L 89.5 44.0 Z" /><path desc="l 3 p 10" fill="rgb(119,119,119)" stroke="rgb(119,119,119)" stroke-width="1" opacity="1.0" d="M 66.5 45.0 L 66.5 47.0 L 68.5 46.0 L 67.5 48.0 L 65.5 49.0 L 65.5 47.0 L 66.5 45.0 Z" /><path desc="l 0 p 15" fill="rgb(162,162,162)" stroke="rgb(162,162,162)" stroke-width="1" opacity="1.0" d="M 69.5 46.0 L 68.5 48.0 L 69.5 46.0 Z" /><path desc="l 3 p 11" fill="rgb(119,119,119)" stroke="rgb(119,119,119)" stroke-width="1" opacity="1.0" d="M 81.5 46.0 L 81.5 49.0 L 79.5 48.0 L 78.5 51.0 L 78.5 49.0 L 79.5 47.0 L 81.5 46.0 Z" /><path desc="l 5 p 18" fill="rgb(173,173,173)" stroke="rgb(173,173,173)" stroke-width="1" opacity="1.0" d="M 60.5 47.0 L 59.5 49.0 L 60.5 47.0 Z" /><path desc="l 5 p 19" fill="rgb(173,173,173)" stroke="rgb(173,173,173)" stroke-width="1" opacity="1.0" d="M 77.5 47.0 L 76.5 49.0 L 74.0 48.5 L 77.5 47.0 Z" /><path desc="l 0 p 16" fill="rgb(162,162,162)" stroke="rgb(162,162,162)" stroke-width="1" opacity="1.0" d="M 78.5 47.0 L 77.5 49.0 L 78.5 47.0 Z" /><path desc="l 5 p 20" fill="rgb(173,173,173)" stroke="rgb(173,173,173)" stroke-width="1" opacity="1.0" d="M 93.5 47.0 L 96.0 47.5 L 92.5 49.0 L 93.5 47.0 Z" /><path desc="l 0 p 17" fill="rgb(162,162,162)" stroke="rgb(162,162,162)" stroke-width="1" opacity="1.0" d="M 66.5 48.0 L 65.5 50.0 L 64.0 49.5 L 66.5 48.0 Z" /><path desc="l 5 p 21" fill="rgb(173,173,173)" stroke="rgb(173,173,173)" stroke-width="1" opacity="1.0" d="M 67.5 48.0 L 66.5 50.0 L 67.5 48.0 Z" /><path desc="l 0 p 18" fill="rgb(162,162,162)" stroke="rgb(162,162,162)" stroke-width="1" opacity="1.0" d="M 82.5 48.0 L 81.5 50.0 L 79.5 51.0 L 80.5 49.0 L 82.5 48.0 Z" /><path desc="l 5 p 22" fill="rgb(173,173,173)" stroke="rgb(173,173,173)" stroke-width="1" opacity="1.0" d="M 83.5 48.0 L 83.0 49.5 L 82.5 51.0 L 80.0 51.5 L 79.5 53.0 L 77.0 52.5 L 83.5 48.0 Z" /><path desc="l 0 p 19" fill="rgb(162,162,162)" stroke="rgb(162,162,162)" stroke-width="1" opacity="1.0" d="M 93.5 48.0 L 96.0 48.5 L 83.5 55.0 L 84.5 53.0 L 93.5 48.0 Z" /><path desc="l 5 p 23" fill="rgb(173,173,173)" stroke="rgb(173,173,173)" stroke-width="1" opacity="1.0" d="M 56.5 49.0 L 58.0 49.5 L 52.5 53.0 L 53.5 51.0 L 56.5 49.0 Z" /><path desc="l 0 p 20" fill="rgb(162,162,162)" stroke="rgb(162,162,162)" stroke-width="1" opacity="1.0" d="M 58.5 49.0 L 57.5 51.0 L 55.5 52.0 L 56.5 50.0 L 58.5 49.0 Z" /><path desc="l 3 p 12" fill="rgb(119,119,119)" stroke="rgb(119,119,119)" stroke-width="1" opacity="1.0" d="M 59.5 49.0 L 59.5 51.0 L 58.5 53.0 L 58.5 51.0 L 59.5 49.0 Z" /><path desc="l 0 p 21" fill="rgb(162,162,162)" stroke="rgb(162,162,162)" stroke-width="1" opacity="1.0" d="M 74.5 49.0 L 76.0 49.5 L 68.5 54.0 L 69.5 52.0 L 74.5 49.0 Z" /><path desc="l 5 p 24" fill="rgb(173,173,173)" stroke="rgb(173,173,173)" stroke-width="1" opacity="1.0" d="M 96.5 49.0 L 97.0 95.5 L 97.0 107.5 Q 95.8 112.3 98.0 113.5 L 96.5 114.0 L 96.5 49.0 Z" /><path desc="l 5 p 25" fill="rgb(173,173,173)" stroke="rgb(173,173,173)" stroke-width="1" opacity="1.0" d="M 71.5 50.0 L 73.0 50.5 L 65.5 55.0 L 66.5 53.0 L 71.5 50.0 Z" /><path desc="l 5 p 26" fill="rgb(173,173,173)" stroke="rgb(173,173,173)" stroke-width="1" opacity="1.0" d="M 87.5 50.0 L 89.0 50.5 L 87.0 51.5 L 87.5 50.0 Z" /><path desc="l 0 p 22" fill="rgb(162,162,162)" stroke="rgb(162,162,162)" stroke-width="1" opacity="1.0" d="M 60.5 51.0 L 59.5 53.0 L 60.5 51.0 Z" /><path desc="l 5 p 27" fill="rgb(173,173,173)" stroke="rgb(173,173,173)" stroke-width="1" opacity="1.0" d="M 61.5 51.0 L 62.0 52.5 L 60.5 53.0 L 61.5 51.0 Z" /><path desc="l 0 p 23" fill="rgb(162,162,162)" stroke="rgb(162,162,162)" stroke-width="1" opacity="1.0" d="M 77.5 51.0 L 76.5 53.0 L 74.5 54.0 L 75.5 52.0 L 77.5 51.0 Z" /><path desc="l 3 p 13" fill="rgb(119,119,119)" stroke="rgb(119,119,119)" stroke-width="1" opacity="1.0" d="M 54.5 52.0 L 54.5 55.0 L 52.5 54.0 L 51.0 54.5 L 54.5 52.0 Z" /><path desc="l 3 p 14" fill="rgb(119,119,119)" stroke="rgb(119,119,119)" stroke-width="1" opacity="1.0" d="M 74.5 52.0 L 73.5 54.0 L 74.5 52.0 Z" /><path desc="l 0 p 24" fill="rgb(162,162,162)" stroke="rgb(162,162,162)" stroke-width="1" opacity="1.0" d="M 51.5 53.0 L 50.5 55.0 L 46.5 57.0 L 47.5 55.0 L 51.5 53.0 Z" /><path desc="l 5 p 28" fill="rgb(173,173,173)" stroke="rgb(173,173,173)" stroke-width="1" opacity="1.0" d="M 83.5 53.0 L 82.5 55.0 L 80.5 56.0 L 81.5 54.0 L 83.5 53.0 Z" /><path desc="l 3 p 15" fill="rgb(119,119,119)" stroke="rgb(119,119,119)" stroke-width="1" opacity="1.0" d="M 89.5 53.0 L 88.0 55.5 L 88.0 90.5 L 88.0 99.5 Q 88.8 103.3 86.5 104.0 L 84.0 102.5 L 85.5 103.0 L 87.0 102.5 L 87.0 67.5 L 87.0 58.5 Q 86.3 53.8 89.5 53.0 Z" /><path desc="l 1 p 3" fill="rgb(177,177,177)" stroke="rgb(177,177,177)" stroke-width="1" opacity="1.0" d="M 92.5 53.0 L 93.0 111.5 L 90.5 112.0 L 86.0 109.5 L 85.5 108.0 L 83.0 107.5 L 82.5 106.0 L 80.5 106.0 L 77.0 104.5 L 76.5 103.0 L 62.0 95.5 L 61.5 94.0 L 56.0 92.5 L 55.5 90.0 L 53.5 91.0 L 50.0 88.5 L 56.5 88.0 L 62.0 91.5 L 62.5 93.0 L 68.0 94.5 L 68.5 96.0 L 71.0 96.5 L 71.5 98.0 Q 73.0 95.5 74.5 99.0 L 78.0 100.5 L 78.5 102.0 L 84.0 103.5 L 84.5 105.0 L 89.0 104.5 L 89.0 68.5 L 89.0 59.5 L 90.5 54.0 L 92.5 53.0 Z" /><path desc="l 5 p 29" fill="rgb(173,173,173)" stroke="rgb(173,173,173)" stroke-width="1" opacity="1.0" d="M 93.5 53.0 L 94.0 113.5 L 92.5 114.0 L 88.0 111.5 L 89.5 111.0 L 92.5 112.0 L 93.5 53.0 Z" /><path desc="l 0 p 25" fill="rgb(162,162,162)" stroke="rgb(162,162,162)" stroke-width="1" opacity="1.0" d="M 55.5 54.0 L 54.5 56.0 L 52.5 57.0 L 53.5 55.0 L 55.5 54.0 Z" /><path desc="l 5 p 30" fill="rgb(173,173,173)" stroke="rgb(173,173,173)" stroke-width="1" opacity="1.0" d="M 56.5 54.0 L 55.5 56.0 L 56.5 54.0 Z" /><path desc="l 0 p 26" fill="rgb(162,162,162)" stroke="rgb(162,162,162)" stroke-width="1" opacity="1.0" d="M 66.5 54.0 L 65.5 56.0 L 63.5 57.0 L 64.5 55.0 L 66.5 54.0 Z" /><path desc="l 3 p 16" fill="rgb(119,119,119)" stroke="rgb(119,119,119)" stroke-width="1" opacity="1.0" d="M 67.5 54.0 L 66.5 56.0 L 67.5 54.0 Z" /><path desc="l 0 p 27" fill="rgb(162,162,162)" stroke="rgb(162,162,162)" stroke-width="1" opacity="1.0" d="M 72.5 54.0 L 71.5 56.0 L 70.0 55.5 L 72.5 54.0 Z" /><path desc="l 5 p 31" fill="rgb(173,173,173)" stroke="rgb(173,173,173)" stroke-width="1" opacity="1.0" d="M 73.5 54.0 L 74.0 55.5 L 67.5 59.0 L 69.5 56.0 L 73.5 54.0 Z" /><path desc="l 5 p 32" fill="rgb(173,173,173)" stroke="rgb(173,173,173)" stroke-width="1" opacity="1.0" d="M 62.5 55.0 L 64.0 55.5 L 53.0 61.5 L 52.5 63.0 L 50.5 64.0 L 48.5 63.0 L 47.5 66.0 L 43.0 68.5 L 41.5 75.0 L 38.0 72.5 L 41.0 71.5 Q 40.3 67.8 42.5 67.0 L 46.0 62.5 L 44.5 62.0 L 42.5 63.0 L 42.5 62.0 L 53.5 56.0 L 51.5 59.0 L 46.0 61.5 L 48.5 62.0 Q 57.5 60.5 62.5 55.0 Z" /><path desc="l 0 p 28" fill="rgb(162,162,162)" stroke="rgb(162,162,162)" stroke-width="1" opacity="1.0" d="M 81.5 55.0 L 80.5 57.0 L 77.5 59.0 L 79.5 56.0 L 81.5 55.0 Z" /><path desc="l 3 p 17" fill="rgb(119,119,119)" stroke="rgb(119,119,119)" stroke-width="1" opacity="1.0" d="M 82.5 55.0 L 82.5 57.0 L 81.5 59.0 L 81.5 57.0 L 82.5 55.0 Z" /><path desc="l 0 p 29" fill="rgb(162,162,162)" stroke="rgb(162,162,162)" stroke-width="1" opacity="1.0" d="M 68.5 56.0 L 66.5 59.0 L 63.5 60.0 L 63.5 59.0 L 68.5 56.0 Z" /><path desc="l 5 p 33" fill="rgb(173,173,173)" stroke="rgb(173,173,173)" stroke-width="1" opacity="1.0" d="M 78.5 56.0 L 77.5 58.0 L 78.5 56.0 Z" /><path desc="l 3 p 18" fill="rgb(119,119,119)" stroke="rgb(119,119,119)" stroke-width="1" opacity="1.0" d="M 84.5 56.0 L 86.0 56.5 L 85.5 58.0 L 84.5 56.0 Z" /><path desc="l 0 p 30" fill="rgb(162,162,162)" stroke="rgb(162,162,162)" stroke-width="1" opacity="1.0" d="M 44.5 57.0 L 43.5 59.0 L 41.5 60.0 L 42.5 58.0 L 44.5 57.0 Z" /><path desc="l 3 p 19" fill="rgb(119,119,119)" stroke="rgb(119,119,119)" stroke-width="1" opacity="1.0" d="M 45.5 57.0 L 44.5 59.0 L 45.5 57.0 Z" /><path desc="l 0 p 31" fill="rgb(162,162,162)" stroke="rgb(162,162,162)" stroke-width="1" opacity="1.0" d="M 50.5 57.0 L 49.5 59.0 L 48.0 58.5 L 50.5 57.0 Z" /><path desc="l 0 p 32" fill="rgb(162,162,162)" stroke="rgb(162,162,162)" stroke-width="1" opacity="1.0" d="M 61.5 57.0 L 60.5 59.0 L 58.5 60.0 L 59.5 58.0 L 61.5 57.0 Z" /><path desc="l 0 p 33" fill="rgb(162,162,162)" stroke="rgb(162,162,162)" stroke-width="1" opacity="1.0" d="M 83.5 57.0 L 86.0 58.5 L 86.0 81.5 L 86.0 87.5 L 84.5 91.0 L 83.0 90.5 L 85.0 89.5 L 84.5 58.0 L 82.5 59.0 L 83.5 57.0 Z" /><path desc="l 5 p 34" fill="rgb(173,173,173)" stroke="rgb(173,173,173)" stroke-width="1" opacity="1.0" d="M 88.5 57.0 L 89.0 104.5 L 86.5 105.0 L 86.5 104.0 L 88.0 103.5 L 88.5 57.0 Z" /><path desc="l 5 p 35" fill="rgb(173,173,173)" stroke="rgb(173,173,173)" stroke-width="1" opacity="1.0" d="M 41.5 58.0 L 40.5 60.0 L 41.5 58.0 Z" /><path desc="l 3 p 20" fill="rgb(119,119,119)" stroke="rgb(119,119,119)" stroke-width="1" opacity="1.0" d="M 47.5 58.0 L 46.5 60.0 L 47.5 58.0 Z" /><path desc="l 5 p 36" fill="rgb(173,173,173)" stroke="rgb(173,173,173)" stroke-width="1" opacity="1.0" d="M 83.5 58.0 L 85.0 58.5 L 84.5 90.0 L 83.5 60.0 L 81.0 60.5 L 80.5 87.0 L 80.0 60.5 L 83.5 58.0 Z" /><path desc="l 3 p 21" fill="rgb(119,119,119)" stroke="rgb(119,119,119)" stroke-width="1" opacity="1.0" d="M 59.5 59.0 L 61.5 60.0 L 63.0 59.5 L 59.5 62.0 L 59.5 59.0 Z" /><path desc="l 3 p 22" fill="rgb(119,119,119)" stroke="rgb(119,119,119)" stroke-width="1" opacity="1.0" d="M 77.5 59.0 L 78.0 88.5 L 76.0 89.5 L 77.0 86.5 L 77.0 80.5 L 77.5 59.0 Z" /><path desc="l 3 p 23" fill="rgb(119,119,119)" stroke="rgb(119,119,119)" stroke-width="1" opacity="1.0" d="M 79.5 59.0 L 80.0 80.5 L 80.0 86.5 L 81.0 89.5 L 79.0 88.5 L 79.5 59.0 Z" /><path desc="l 5 p 37" fill="rgb(173,173,173)" stroke="rgb(173,173,173)" stroke-width="1" opacity="1.0" d="M 37.5 60.0 L 39.0 60.5 L 33.5 64.0 L 34.5 62.0 L 37.5 60.0 Z" /><path desc="l 0 p 34" fill="rgb(162,162,162)" stroke="rgb(162,162,162)" stroke-width="1" opacity="1.0" d="M 39.5 60.0 L 38.5 62.0 L 36.5 63.0 L 37.5 61.0 L 39.5 60.0 Z" /><path desc="l 3 p 24" fill="rgb(119,119,119)" stroke="rgb(119,119,119)" stroke-width="1" opacity="1.0" d="M 40.5 60.0 L 39.5 62.0 L 40.5 60.0 Z" /><path desc="l 0 p 35" fill="rgb(162,162,162)" stroke="rgb(162,162,162)" stroke-width="1" opacity="1.0" d="M 56.5 60.0 L 55.5 62.0 L 53.5 63.0 L 53.0 61.5 L 56.5 60.0 Z" /><path desc="l 3 p 25" fill="rgb(119,119,119)" stroke="rgb(119,119,119)" stroke-width="1" opacity="1.0" d="M 57.5 60.0 L 57.5 63.0 L 47.0 68.5 L 48.0 70.5 L 45.5 71.0 L 43.0 69.5 L 57.5 60.0 Z" /><path desc="l 5 p 38" fill="rgb(173,173,173)" stroke="rgb(173,173,173)" stroke-width="1" opacity="1.0" d="M 62.5 60.0 L 63.5 63.0 L 67.0 63.5 L 58.5 69.0 L 53.5 68.0 L 51.0 69.5 L 51.5 71.0 L 54.5 70.0 L 53.5 72.0 L 50.0 71.5 L 48.0 68.5 L 52.5 66.0 Q 53.8 68.3 58.5 67.0 L 58.5 66.0 L 54.0 65.5 L 59.5 62.0 L 58.5 64.0 L 57.0 64.5 L 61.5 66.0 L 64.0 64.5 L 61.0 62.5 L 62.5 60.0 Z" /><path desc="l 1 p 4" fill="rgb(177,177,177)" stroke="rgb(177,177,177)" stroke-width="1" opacity="1.0" d="M 81.5 60.0 L 84.0 60.5 L 83.5 90.0 Q 79.3 88.3 81.0 80.5 L 81.5 60.0 Z" /><path desc="l 5 p 39" fill="rgb(173,173,173)" stroke="rgb(173,173,173)" stroke-width="1" opacity="1.0" d="M 69.5 61.0 L 71.0 61.5 L 68.5 63.0 L 69.5 61.0 Z" /><path desc="l 0 p 36" fill="rgb(162,162,162)" stroke="rgb(162,162,162)" stroke-width="1" opacity="1.0" d="M 41.5 62.0 L 40.5 64.0 L 41.5 62.0 Z" /><path desc="l 0 p 37" fill="rgb(162,162,162)" stroke="rgb(162,162,162)" stroke-width="1" opacity="1.0" d="M 69.5 62.0 L 72.0 62.5 L 69.5 63.0 L 69.5 62.0 Z" /><path desc="l 0 p 38" fill="rgb(162,162,162)" stroke="rgb(162,162,162)" stroke-width="1" opacity="1.0" d="M 56.5 63.0 L 55.5 65.0 L 53.5 66.0 L 54.5 64.0 L 56.5 63.0 Z" /><path desc="l 0 p 39" fill="rgb(162,162,162)" stroke="rgb(162,162,162)" stroke-width="1" opacity="1.0" d="M 67.5 63.0 L 66.5 65.0 L 62.5 67.0 L 62.5 66.0 L 67.5 63.0 Z" /><path desc="l 3 p 26" fill="rgb(119,119,119)" stroke="rgb(119,119,119)" stroke-width="1" opacity="1.0" d="M 68.5 63.0 L 67.5 65.0 L 68.5 63.0 Z" /><path desc="l 3 p 27" fill="rgb(119,119,119)" stroke="rgb(119,119,119)" stroke-width="1" opacity="1.0" d="M 71.5 63.0 L 72.5 91.0 L 74.5 90.0 L 74.5 92.0 L 76.5 91.0 L 75.5 93.0 L 74.0 93.5 L 73.5 95.0 L 73.0 93.5 L 73.5 92.0 L 71.0 91.5 L 71.5 63.0 Z" /><path desc="l 5 p 40" fill="rgb(173,173,173)" stroke="rgb(173,173,173)" stroke-width="1" opacity="1.0" d="M 31.5 64.0 L 30.5 66.0 L 29.0 65.5 L 31.5 64.0 Z" /><path desc="l 0 p 40" fill="rgb(162,162,162)" stroke="rgb(162,162,162)" stroke-width="1" opacity="1.0" d="M 32.5 64.0 L 31.5 66.0 L 32.5 64.0 Z" /><path desc="l 3 p 28" fill="rgb(119,119,119)" stroke="rgb(119,119,119)" stroke-width="1" opacity="1.0" d="M 33.5 64.0 L 33.5 66.0 L 32.5 68.0 L 32.5 66.0 L 33.5 64.0 Z" /><path desc="l 5 p 41" fill="rgb(173,173,173)" stroke="rgb(173,173,173)" stroke-width="1" opacity="1.0" d="M 39.5 64.0 L 41.0 64.5 L 40.5 66.0 L 39.5 64.0 Z" /><path desc="l 0 p 41" fill="rgb(162,162,162)" stroke="rgb(162,162,162)" stroke-width="1" opacity="1.0" d="M 49.5 64.0 L 48.5 66.0 L 49.5 64.0 Z" /><path desc="l 5 p 42" fill="rgb(173,173,173)" stroke="rgb(173,173,173)" stroke-width="1" opacity="1.0" d="M 37.5 65.0 L 36.5 67.0 L 34.0 68.5 L 34.5 70.0 L 32.0 69.5 L 32.5 68.0 L 37.5 65.0 Z" /><path desc="l 3 p 29" fill="rgb(119,119,119)" stroke="rgb(119,119,119)" stroke-width="1" opacity="1.0" d="M 65.5 65.0 L 68.0 66.5 L 64.0 68.5 L 63.5 89.0 L 62.5 81.0 L 54.0 76.5 L 58.5 76.0 L 59.5 79.0 L 61.0 78.5 L 60.5 77.0 L 62.0 76.5 L 63.0 68.5 L 61.5 68.0 L 60.5 70.0 L 62.0 70.5 L 58.5 72.0 Q 55.5 70.5 58.5 69.0 L 65.5 65.0 Z" /><path desc="l 5 p 43" fill="rgb(173,173,173)" stroke="rgb(173,173,173)" stroke-width="1" opacity="1.0" d="M 27.5 66.0 L 27.0 67.5 L 26.5 70.0 L 26.0 67.5 L 27.5 66.0 Z" /><path desc="l 0 p 42" fill="rgb(162,162,162)" stroke="rgb(162,162,162)" stroke-width="1" opacity="1.0" d="M 28.5 66.0 L 30.0 66.5 L 27.5 68.0 L 28.5 66.0 Z" /><path desc="l 0 p 43" fill="rgb(162,162,162)" stroke="rgb(162,162,162)" stroke-width="1" opacity="1.0" d="M 34.5 66.0 L 33.5 68.0 L 34.5 66.0 Z" /><path desc="l 0 p 44" fill="rgb(162,162,162)" stroke="rgb(162,162,162)" stroke-width="1" opacity="1.0" d="M 51.5 66.0 L 50.5 68.0 L 49.0 67.5 L 51.5 66.0 Z" /><path desc="l 0 p 45" fill="rgb(162,162,162)" stroke="rgb(162,162,162)" stroke-width="1" opacity="1.0" d="M 68.5 66.0 L 70.0 66.5 L 69.5 91.0 L 66.0 89.5 L 67.5 90.0 L 69.0 89.5 L 68.5 67.0 L 66.5 68.0 L 66.5 67.0 L 68.5 66.0 Z" /><path desc="l 5 p 44" fill="rgb(173,173,173)" stroke="rgb(173,173,173)" stroke-width="1" opacity="1.0" d="M 72.5 66.0 L 73.0 89.5 L 72.0 89.5 L 72.5 66.0 Z" /><path desc="l 3 p 30" fill="rgb(119,119,119)" stroke="rgb(119,119,119)" stroke-width="1" opacity="1.0" d="M 28.5 67.0 L 27.5 69.0 L 28.5 67.0 Z" /><path desc="l 0 p 46" fill="rgb(162,162,162)" stroke="rgb(162,162,162)" stroke-width="1" opacity="1.0" d="M 44.5 67.0 L 43.5 69.0 L 44.5 67.0 Z" /><path desc="l 0 p 47" fill="rgb(162,162,162)" stroke="rgb(162,162,162)" stroke-width="1" opacity="1.0" d="M 60.5 67.0 L 59.5 69.0 L 60.5 67.0 Z" /><path desc="l 5 p 45" fill="rgb(173,173,173)" stroke="rgb(173,173,173)" stroke-width="1" opacity="1.0" d="M 68.5 67.0 L 69.0 69.5 L 68.5 72.0 L 67.5 69.0 L 65.0 69.5 Q 68.0 71.5 67.0 77.5 L 66.0 77.5 L 65.5 73.0 L 65.0 78.5 L 66.0 80.5 L 65.0 83.5 L 68.0 82.5 Q 66.0 87.0 64.0 83.5 L 64.0 75.5 L 65.0 71.5 L 64.0 69.5 L 68.5 67.0 Z" /><path desc="l 0 p 48" fill="rgb(162,162,162)" stroke="rgb(162,162,162)" stroke-width="1" opacity="1.0" d="M 47.5 68.0 L 49.5 71.0 L 47.0 69.5 L 47.5 68.0 Z" /><path desc="l 1 p 5" fill="rgb(177,177,177)" stroke="rgb(177,177,177)" stroke-width="1" opacity="1.0" d="M 53.5 68.0 L 58.0 68.5 L 51.5 71.0 L 51.0 69.5 L 53.5 68.0 Z" /><path desc="l 6 p 1" fill="rgb(66,66,66)" stroke="rgb(66,66,66)" stroke-width="1" opacity="1.0" d="M 61.5 68.0 L 63.0 68.5 L 62.5 72.0 L 61.5 70.0 L 60.0 69.5 L 61.5 68.0 Z" /><path desc="l 1 p 6" fill="rgb(177,177,177)" stroke="rgb(177,177,177)" stroke-width="1" opacity="1.0" d="M 68.5 68.0 L 68.0 69.5 L 69.0 77.5 L 68.0 80.5 L 69.0 83.5 L 69.0 89.5 L 68.0 89.5 L 67.5 87.0 L 65.5 87.0 L 64.0 86.5 L 66.0 79.5 Q 63.8 78.3 65.0 73.5 L 66.0 73.5 L 66.5 78.0 L 67.0 72.5 L 64.0 71.5 L 65.5 69.0 L 68.5 68.0 Z" /><path desc="l 0 p 49" fill="rgb(162,162,162)" stroke="rgb(162,162,162)" stroke-width="1" opacity="1.0" d="M 57.5 69.0 L 56.5 71.0 L 54.5 72.0 L 55.5 70.0 L 57.5 69.0 Z" /><path desc="l 0 p 50" fill="rgb(162,162,162)" stroke="rgb(162,162,162)" stroke-width="1" opacity="1.0" d="M 26.5 70.0 L 27.0 79.5 L 26.0 79.5 L 26.5 70.0 Z" /><path desc="l 0 p 51" fill="rgb(162,162,162)" stroke="rgb(162,162,162)" stroke-width="1" opacity="1.0" d="M 33.5 70.0 L 35.0 70.5 L 34.5 72.0 L 33.5 70.0 Z" /><path desc="l 6 p 2" fill="rgb(66,66,66)" stroke="rgb(66,66,66)" stroke-width="1" opacity="1.0" d="M 46.5 70.0 L 49.0 71.5 L 46.5 72.0 L 46.5 70.0 Z" /><path desc="l 1 p 7" fill="rgb(177,177,177)" stroke="rgb(177,177,177)" stroke-width="1" opacity="1.0" d="M 42.5 71.0 L 45.0 72.5 L 44.5 76.0 L 42.0 74.5 L 42.5 71.0 Z" /><path desc="l 5 p 46" fill="rgb(173,173,173)" stroke="rgb(173,173,173)" stroke-width="1" opacity="1.0" d="M 44.5 71.0 L 61.0 81.5 L 59.5 85.0 L 58.0 84.5 L 60.0 83.5 L 59.5 82.0 L 56.5 84.0 L 48.0 77.5 L 46.5 74.0 L 46.0 76.5 L 46.5 78.0 L 43.0 75.5 L 45.0 75.5 L 44.5 71.0 Z" /><path desc="l 0 p 52" fill="rgb(162,162,162)" stroke="rgb(162,162,162)" stroke-width="1" opacity="1.0" d="M 45.5 71.0 L 49.0 73.5 L 47.5 74.0 L 45.5 71.0 Z" /><path desc="l 3 p 31" fill="rgb(119,119,119)" stroke="rgb(119,119,119)" stroke-width="1" opacity="1.0" d="M 49.5 71.0 L 53.0 75.5 L 50.5 74.0 L 47.0 72.5 L 49.5 71.0 Z" /><path desc="l 6 p 3" fill="rgb(66,66,66)" stroke="rgb(66,66,66)" stroke-width="1" opacity="1.0" d="M 55.5 71.0 L 58.0 71.5 L 54.0 74.5 L 56.0 75.5 L 53.5 76.0 L 52.0 73.5 L 55.5 71.0 Z" /><path desc="l 0 p 53" fill="rgb(162,162,162)" stroke="rgb(162,162,162)" stroke-width="1" opacity="1.0" d="M 59.5 71.0 L 62.0 71.5 L 61.5 77.0 L 59.0 76.5 L 61.0 75.5 L 60.5 72.0 L 57.0 73.5 L 58.0 75.5 L 56.5 76.0 Q 53.0 74.0 57.5 72.0 L 59.5 71.0 Z" /><path desc="l 3 p 32" fill="rgb(119,119,119)" stroke="rgb(119,119,119)" stroke-width="1" opacity="1.0" d="M 28.5 72.0 Q 27.6 77.4 30.5 79.0 L 32.0 79.5 L 29.5 81.0 Q 31.1 79.3 28.0 77.5 L 28.5 72.0 Z" /><path desc="l 5 p 47" fill="rgb(173,173,173)" stroke="rgb(173,173,173)" stroke-width="1" opacity="1.0" d="M 29.5 72.0 L 37.0 76.5 L 35.5 76.0 L 30.5 73.0 L 29.5 78.0 L 29.5 72.0 Z" /><path desc="l 0 p 54" fill="rgb(162,162,162)" stroke="rgb(162,162,162)" stroke-width="1" opacity="1.0" d="M 31.5 72.0 L 32.5 74.0 L 31.5 72.0 Z" /><path desc="l 3 p 33" fill="rgb(119,119,119)" stroke="rgb(119,119,119)" stroke-width="1" opacity="1.0" d="M 32.5 72.0 L 33.5 74.0 L 32.5 72.0 Z" /><path desc="l 0 p 55" fill="rgb(162,162,162)" stroke="rgb(162,162,162)" stroke-width="1" opacity="1.0" d="M 36.5 72.0 L 51.0 80.5 L 49.5 80.0 Q 40.4 77.0 36.5 72.0 Z" /><path desc="l 3 p 34" fill="rgb(119,119,119)" stroke="rgb(119,119,119)" stroke-width="1" opacity="1.0" d="M 56.5 72.0 L 54.5 75.0 L 56.5 72.0 Z" /><path desc="l 5 p 48" fill="rgb(173,173,173)" stroke="rgb(173,173,173)" stroke-width="1" opacity="1.0" d="M 59.5 72.0 L 61.0 72.5 L 60.5 76.0 L 57.0 74.5 L 57.5 73.0 L 59.5 72.0 Z" /><path desc="l 1 p 8" fill="rgb(177,177,177)" stroke="rgb(177,177,177)" stroke-width="1" opacity="1.0" d="M 30.5 73.0 L 41.0 79.5 L 42.5 82.0 L 44.5 81.0 L 47.0 82.5 L 47.5 84.0 L 52.0 85.5 L 46.5 87.0 L 45.5 85.0 L 44.0 84.5 Q 46.3 83.3 43.5 82.0 L 42.5 84.0 L 35.0 80.5 L 34.5 79.0 L 30.0 77.5 L 30.5 73.0 Z" /><path desc="l 1 p 9" fill="rgb(177,177,177)" stroke="rgb(177,177,177)" stroke-width="1" opacity="1.0" d="M 46.5 74.0 L 48.0 77.5 L 46.0 76.5 L 46.5 74.0 Z" /><path desc="l 0 p 56" fill="rgb(162,162,162)" stroke="rgb(162,162,162)" stroke-width="1" opacity="1.0" d="M 50.5 74.0 L 51.5 76.0 L 50.5 74.0 Z" /><path desc="l 0 p 57" fill="rgb(162,162,162)" stroke="rgb(162,162,162)" stroke-width="1" opacity="1.0" d="M 36.5 75.0 L 37.5 77.0 L 36.5 75.0 Z" /><path desc="l 3 p 35" fill="rgb(119,119,119)" stroke="rgb(119,119,119)" stroke-width="1" opacity="1.0" d="M 37.5 75.0 L 39.5 76.0 L 41.5 76.0 L 46.0 78.5 L 46.5 80.0 L 48.0 79.5 L 47.5 82.0 L 41.5 78.0 Q 37.5 77.5 37.5 75.0 Z" /><path desc="l 1 p 10" fill="rgb(177,177,177)" stroke="rgb(177,177,177)" stroke-width="1" opacity="1.0" d="M 49.5 75.0 L 52.5 79.0 L 56.0 79.5 L 53.5 81.0 L 49.0 77.5 L 49.5 75.0 Z" /><path desc="l 0 p 58" fill="rgb(162,162,162)" stroke="rgb(162,162,162)" stroke-width="1" opacity="1.0" d="M 55.5 77.0 L 59.0 79.5 L 57.5 79.0 L 55.5 77.0 Z" /><path desc="l 6 p 4" fill="rgb(66,66,66)" stroke="rgb(66,66,66)" stroke-width="1" opacity="1.0" d="M 58.5 77.0 L 61.5 79.0 L 63.0 78.5 L 62.5 80.0 Q 58.5 79.5 58.5 77.0 Z" /><path desc="l 0 p 59" fill="rgb(162,162,162)" stroke="rgb(162,162,162)" stroke-width="1" opacity="1.0" d="M 30.5 78.0 L 34.0 80.5 L 31.5 79.0 L 30.5 78.0 Z" /><path desc="l 5 p 49" fill="rgb(173,173,173)" stroke="rgb(173,173,173)" stroke-width="1" opacity="1.0" d="M 32.5 78.0 L 35.0 79.5 L 34.5 81.0 L 32.5 78.0 Z" /><path desc="l 5 p 50" fill="rgb(173,173,173)" stroke="rgb(173,173,173)" stroke-width="1" opacity="1.0" d="M 40.5 78.0 L 51.0 84.5 L 49.5 84.0 L 47.0 83.5 L 46.5 82.0 L 43.5 81.0 L 44.5 85.0 L 46.0 85.5 L 45.5 87.0 L 42.0 84.5 L 43.0 82.5 L 40.5 78.0 Z" /><path desc="l 5 p 51" fill="rgb(173,173,173)" stroke="rgb(173,173,173)" stroke-width="1" opacity="1.0" d="M 68.5 78.0 L 69.0 80.5 L 68.0 80.5 L 68.5 78.0 Z" /><path desc="l 6 p 5" fill="rgb(66,66,66)" stroke="rgb(66,66,66)" stroke-width="1" opacity="1.0" d="M 46.5 79.0 L 54.0 83.5 L 52.5 84.0 Q 47.5 82.5 46.5 79.0 Z" /><path desc="l 5 p 52" fill="rgb(173,173,173)" stroke="rgb(173,173,173)" stroke-width="1" opacity="1.0" d="M 26.5 80.0 L 29.0 81.5 L 27.5 81.0 L 26.5 80.0 Z" /><path desc="l 0 p 60" fill="rgb(162,162,162)" stroke="rgb(162,162,162)" stroke-width="1" opacity="1.0" d="M 28.5 80.0 L 32.0 82.5 L 30.5 82.0 L 28.5 80.0 Z" /><path desc="l 0 p 61" fill="rgb(162,162,162)" stroke="rgb(162,162,162)" stroke-width="1" opacity="1.0" d="M 60.5 80.0 L 62.0 82.5 L 61.0 82.5 L 60.5 80.0 Z" /><path desc="l 0 p 62" fill="rgb(162,162,162)" stroke="rgb(162,162,162)" stroke-width="1" opacity="1.0" d="M 35.5 81.0 L 38.0 82.5 L 36.5 82.0 L 35.5 81.0 Z" /><path desc="l 5 p 53" fill="rgb(173,173,173)" stroke="rgb(173,173,173)" stroke-width="1" opacity="1.0" d="M 37.5 81.0 L 41.0 83.5 L 39.5 83.0 L 37.5 81.0 Z" /><path desc="l 3 p 36" fill="rgb(119,119,119)" stroke="rgb(119,119,119)" stroke-width="1" opacity="1.0" d="M 51.5 81.0 Q 54.5 82.5 51.5 84.0 L 51.5 81.0 Z" /><path desc="l 0 p 63" fill="rgb(162,162,162)" stroke="rgb(162,162,162)" stroke-width="1" opacity="1.0" d="M 52.5 81.0 L 58.0 84.5 L 56.5 85.0 L 52.5 81.0 Z" /><path desc="l 5 p 54" fill="rgb(173,173,173)" stroke="rgb(173,173,173)" stroke-width="1" opacity="1.0" d="M 30.5 82.0 L 33.0 83.5 L 31.5 84.0 L 30.5 82.0 Z" /><path desc="l 1 p 11" fill="rgb(177,177,177)" stroke="rgb(177,177,177)" stroke-width="1" opacity="1.0" d="M 59.5 82.0 L 60.0 83.5 L 57.5 84.0 L 57.5 83.0 L 59.5 82.0 Z" /><path desc="l 3 p 37" fill="rgb(119,119,119)" stroke="rgb(119,119,119)" stroke-width="1" opacity="1.0" d="M 38.5 83.0 L 39.5 85.0 L 38.5 83.0 Z" /><path desc="l 0 p 64" fill="rgb(162,162,162)" stroke="rgb(162,162,162)" stroke-width="1" opacity="1.0" d="M 39.5 83.0 L 50.0 89.5 L 48.5 89.0 L 42.0 85.5 L 39.5 83.0 Z" /><path desc="l 0 p 65" fill="rgb(162,162,162)" stroke="rgb(162,162,162)" stroke-width="1" opacity="1.0" d="M 50.5 83.0 L 54.0 85.5 L 52.5 85.0 L 50.5 83.0 Z" /><path desc="l 3 p 38" fill="rgb(119,119,119)" stroke="rgb(119,119,119)" stroke-width="1" opacity="1.0" d="M 54.5 83.0 L 59.0 85.5 L 56.5 87.0 L 53.0 84.5 L 54.5 83.0 Z" /><path desc="l 3 p 39" fill="rgb(119,119,119)" stroke="rgb(119,119,119)" stroke-width="1" opacity="1.0" d="M 61.5 83.0 L 62.0 86.5 L 60.5 87.0 L 61.0 85.5 L 61.5 83.0 Z" /><path desc="l 5 p 55" fill="rgb(173,173,173)" stroke="rgb(173,173,173)" stroke-width="1" opacity="1.0" d="M 34.5 84.0 L 38.0 86.5 L 35.5 87.0 L 34.5 84.0 Z" /><path desc="l 0 p 66" fill="rgb(162,162,162)" stroke="rgb(162,162,162)" stroke-width="1" opacity="1.0" d="M 35.5 84.0 L 36.5 86.0 L 35.5 84.0 Z" /><path desc="l 3 p 40" fill="rgb(119,119,119)" stroke="rgb(119,119,119)" stroke-width="1" opacity="1.0" d="M 36.5 84.0 L 37.5 86.0 L 36.5 84.0 Z" /><path desc="l 0 p 67" fill="rgb(162,162,162)" stroke="rgb(162,162,162)" stroke-width="1" opacity="1.0" d="M 60.5 84.0 L 61.0 85.5 L 59.5 86.0 L 60.5 84.0 Z" /><path desc="l 5 p 56" fill="rgb(173,173,173)" stroke="rgb(173,173,173)" stroke-width="1" opacity="1.0" d="M 52.5 85.0 L 60.0 89.5 L 58.5 89.0 L 50.5 88.0 L 50.5 90.0 L 47.0 87.5 L 52.5 85.0 Z" /><path desc="l 3 p 41" fill="rgb(119,119,119)" stroke="rgb(119,119,119)" stroke-width="1" opacity="1.0" d="M 58.5 87.0 L 59.5 89.0 L 58.5 87.0 Z" /><path desc="l 5 p 57" fill="rgb(173,173,173)" stroke="rgb(173,173,173)" stroke-width="1" opacity="1.0" d="M 64.5 87.0 L 66.5 88.0 L 68.0 87.5 L 67.5 90.0 L 64.5 87.0 Z" /><path desc="l 5 p 58" fill="rgb(173,173,173)" stroke="rgb(173,173,173)" stroke-width="1" opacity="1.0" d="M 75.5 87.0 L 76.0 88.5 L 74.0 89.5 L 75.5 87.0 Z" /><path desc="l 0 p 68" fill="rgb(162,162,162)" stroke="rgb(162,162,162)" stroke-width="1" opacity="1.0" d="M 80.5 87.0 L 82.0 89.5 L 80.0 88.5 L 80.5 87.0 Z" /><path desc="l 5 p 59" fill="rgb(173,173,173)" stroke="rgb(173,173,173)" stroke-width="1" opacity="1.0" d="M 41.5 88.0 L 42.5 90.0 L 41.5 88.0 Z" /><path desc="l 0 p 69" fill="rgb(162,162,162)" stroke="rgb(162,162,162)" stroke-width="1" opacity="1.0" d="M 42.5 88.0 L 43.5 90.0 L 42.5 88.0 Z" /><path desc="l 0 p 70" fill="rgb(162,162,162)" stroke="rgb(162,162,162)" stroke-width="1" opacity="1.0" d="M 76.5 88.0 L 75.5 90.0 L 76.5 88.0 Z" /><path desc="l 5 p 60" fill="rgb(173,173,173)" stroke="rgb(173,173,173)" stroke-width="1" opacity="1.0" d="M 81.5 88.0 L 82.5 90.0 L 81.5 88.0 Z" /><path desc="l 3 p 42" fill="rgb(119,119,119)" stroke="rgb(119,119,119)" stroke-width="1" opacity="1.0" d="M 65.5 89.0 L 66.5 91.0 L 65.5 89.0 Z" /><path desc="l 5 p 61" fill="rgb(173,173,173)" stroke="rgb(173,173,173)" stroke-width="1" opacity="1.0" d="M 44.5 90.0 L 50.0 93.5 L 48.5 93.0 Q 44.5 92.5 44.5 90.0 Z" /><path desc="l 3 p 43" fill="rgb(119,119,119)" stroke="rgb(119,119,119)" stroke-width="1" opacity="1.0" d="M 50.5 90.0 L 51.5 92.0 L 51.5 94.0 L 50.5 92.0 L 50.5 90.0 Z" /><path desc="l 0 p 71" fill="rgb(162,162,162)" stroke="rgb(162,162,162)" stroke-width="1" opacity="1.0" d="M 51.5 90.0 L 55.0 92.5 L 53.5 92.0 L 51.5 90.0 Z" /><path desc="l 5 p 62" fill="rgb(173,173,173)" stroke="rgb(173,173,173)" stroke-width="1" opacity="1.0" d="M 55.5 90.0 L 56.0 92.5 L 54.0 91.5 L 55.5 90.0 Z" /><path desc="l 5 p 63" fill="rgb(173,173,173)" stroke="rgb(173,173,173)" stroke-width="1" opacity="1.0" d="M 61.5 90.0 L 65.0 92.5 L 62.5 93.0 L 61.5 90.0 Z" /><path desc="l 0 p 72" fill="rgb(162,162,162)" stroke="rgb(162,162,162)" stroke-width="1" opacity="1.0" d="M 62.5 90.0 L 66.0 92.5 L 64.5 92.0 L 62.5 90.0 Z" /><path desc="l 3 p 44" fill="rgb(119,119,119)" stroke="rgb(119,119,119)" stroke-width="1" opacity="1.0" d="M 85.5 90.0 L 86.0 91.5 L 84.5 92.0 L 85.5 90.0 Z" /><path desc="l 0 p 73" fill="rgb(162,162,162)" stroke="rgb(162,162,162)" stroke-width="1" opacity="1.0" d="M 77.5 91.0 L 85.0 94.5 L 83.5 94.0 L 77.5 92.0 L 76.0 92.5 L 77.5 91.0 Z" /><path desc="l 0 p 74" fill="rgb(162,162,162)" stroke="rgb(162,162,162)" stroke-width="1" opacity="1.0" d="M 49.5 92.0 L 50.5 94.0 L 49.5 92.0 Z" /><path desc="l 5 p 64" fill="rgb(173,173,173)" stroke="rgb(173,173,173)" stroke-width="1" opacity="1.0" d="M 77.5 92.0 L 80.0 92.5 L 77.0 93.5 L 78.0 95.5 L 75.0 93.5 L 77.5 92.0 Z" /><path desc="l 5 p 65" fill="rgb(173,173,173)" stroke="rgb(173,173,173)" stroke-width="1" opacity="1.0" d="M 57.5 93.0 L 62.0 94.5 L 61.5 96.0 L 59.0 94.5 L 57.5 93.0 Z" /><path desc="l 0 p 75" fill="rgb(162,162,162)" stroke="rgb(162,162,162)" stroke-width="1" opacity="1.0" d="M 74.5 93.0 L 76.5 96.0 L 74.0 94.5 L 74.5 93.0 Z" /><path desc="l 1 p 12" fill="rgb(177,177,177)" stroke="rgb(177,177,177)" stroke-width="1" opacity="1.0" d="M 77.5 93.0 Q 82.6 92.4 84.0 95.5 L 83.5 98.0 L 82.5 96.0 L 80.5 96.0 L 77.0 94.5 L 77.5 93.0 Z" /><path desc="l 3 p 45" fill="rgb(119,119,119)" stroke="rgb(119,119,119)" stroke-width="1" opacity="1.0" d="M 84.5 93.0 L 86.0 95.5 L 85.0 95.5 L 84.5 93.0 Z" /><path desc="l 5 p 66" fill="rgb(173,173,173)" stroke="rgb(173,173,173)" stroke-width="1" opacity="1.0" d="M 51.5 94.0 L 52.5 96.0 L 51.5 94.0 Z" /><path desc="l 0 p 76" fill="rgb(162,162,162)" stroke="rgb(162,162,162)" stroke-width="1" opacity="1.0" d="M 52.5 94.0 L 56.0 96.5 L 54.5 96.0 L 52.5 94.0 Z" /><path desc="l 3 p 46" fill="rgb(119,119,119)" stroke="rgb(119,119,119)" stroke-width="1" opacity="1.0" d="M 57.5 94.0 L 58.5 96.0 L 58.5 98.0 L 55.0 95.5 L 56.5 96.0 L 58.0 95.5 L 57.5 94.0 Z" /><path desc="l 0 p 77" fill="rgb(162,162,162)" stroke="rgb(162,162,162)" stroke-width="1" opacity="1.0" d="M 58.5 94.0 L 64.0 97.5 L 62.5 97.0 Q 58.5 96.5 58.5 94.0 Z" /><path desc="l 5 p 67" fill="rgb(173,173,173)" stroke="rgb(173,173,173)" stroke-width="1" opacity="1.0" d="M 68.5 94.0 L 69.5 96.0 L 68.0 95.5 L 68.5 94.0 Z" /><path desc="l 0 p 78" fill="rgb(162,162,162)" stroke="rgb(162,162,162)" stroke-width="1" opacity="1.0" d="M 69.5 94.0 L 70.5 96.0 L 69.5 94.0 Z" /><path desc="l 3 p 47" fill="rgb(119,119,119)" stroke="rgb(119,119,119)" stroke-width="1" opacity="1.0" d="M 70.5 94.0 L 71.5 96.0 L 70.5 94.0 Z" /><path desc="l 5 p 68" fill="rgb(173,173,173)" stroke="rgb(173,173,173)" stroke-width="1" opacity="1.0" d="M 83.5 94.0 Q 85.8 94.8 85.0 98.5 L 83.5 99.0 L 79.0 96.5 L 80.5 96.0 L 83.0 96.5 L 83.5 98.0 L 84.0 95.5 L 83.5 94.0 Z" /><path desc="l 5 p 69" fill="rgb(173,173,173)" stroke="rgb(173,173,173)" stroke-width="1" opacity="1.0" d="M 63.5 96.0 L 64.5 98.0 L 63.5 96.0 Z" /><path desc="l 5 p 70" fill="rgb(173,173,173)" stroke="rgb(173,173,173)" stroke-width="1" opacity="1.0" d="M 71.5 96.0 L 72.5 98.0 Q 73.8 95.8 75.0 98.5 L 73.0 98.5 L 71.0 97.5 L 71.5 96.0 Z" /><path desc="l 0 p 79" fill="rgb(162,162,162)" stroke="rgb(162,162,162)" stroke-width="1" opacity="1.0" d="M 78.5 96.0 L 84.5 99.0 L 85.5 96.0 L 86.0 99.5 L 83.5 100.0 Q 78.9 98.8 78.5 96.0 Z" /><path desc="l 5 p 71" fill="rgb(173,173,173)" stroke="rgb(173,173,173)" stroke-width="1" opacity="1.0" d="M 56.5 97.0 L 61.0 99.5 L 59.5 100.0 L 56.0 98.5 L 56.5 97.0 Z" /><path desc="l 0 p 80" fill="rgb(162,162,162)" stroke="rgb(162,162,162)" stroke-width="1" opacity="1.0" d="M 74.5 97.0 L 78.0 99.5 L 76.5 99.0 L 74.5 97.0 Z" /><path desc="l 3 p 48" fill="rgb(119,119,119)" stroke="rgb(119,119,119)" stroke-width="1" opacity="1.0" d="M 64.5 98.0 L 65.5 100.0 L 64.5 98.0 Z" /><path desc="l 0 p 81" fill="rgb(162,162,162)" stroke="rgb(162,162,162)" stroke-width="1" opacity="1.0" d="M 65.5 98.0 L 69.0 100.5 L 67.5 100.0 L 65.5 98.0 Z" /><path desc="l 3 p 49" fill="rgb(119,119,119)" stroke="rgb(119,119,119)" stroke-width="1" opacity="1.0" d="M 77.5 98.0 L 78.5 100.0 L 77.5 98.0 Z" /><path desc="l 5 p 72" fill="rgb(173,173,173)" stroke="rgb(173,173,173)" stroke-width="1" opacity="1.0" d="M 68.5 99.0 L 72.0 101.5 L 70.5 101.0 L 68.5 99.0 Z" /><path desc="l 0 p 82" fill="rgb(162,162,162)" stroke="rgb(162,162,162)" stroke-width="1" opacity="1.0" d="M 63.5 100.0 L 64.5 102.0 L 63.0 101.5 L 63.5 100.0 Z" /><path desc="l 5 p 73" fill="rgb(173,173,173)" stroke="rgb(173,173,173)" stroke-width="1" opacity="1.0" d="M 78.5 100.0 L 79.5 102.0 L 78.0 101.5 L 78.5 100.0 Z" /><path desc="l 0 p 83" fill="rgb(162,162,162)" stroke="rgb(162,162,162)" stroke-width="1" opacity="1.0" d="M 79.5 100.0 L 82.0 101.5 L 80.5 102.0 L 79.5 100.0 Z" /><path desc="l 3 p 50" fill="rgb(119,119,119)" stroke="rgb(119,119,119)" stroke-width="1" opacity="1.0" d="M 69.5 101.0 L 70.5 103.0 L 70.5 105.0 L 69.5 103.0 L 69.5 101.0 Z" /><path desc="l 0 p 84" fill="rgb(162,162,162)" stroke="rgb(162,162,162)" stroke-width="1" opacity="1.0" d="M 70.5 101.0 L 74.0 103.5 L 72.5 103.0 L 70.5 101.0 Z" /><path desc="l 5 p 74" fill="rgb(173,173,173)" stroke="rgb(173,173,173)" stroke-width="1" opacity="1.0" d="M 64.5 102.0 L 69.0 104.5 L 67.0 104.5 L 64.5 102.0 Z" /><path desc="l 5 p 75" fill="rgb(173,173,173)" stroke="rgb(173,173,173)" stroke-width="1" opacity="1.0" d="M 73.5 102.0 L 77.0 103.5 L 76.5 105.0 L 73.5 102.0 Z" /><path desc="l 0 p 85" fill="rgb(162,162,162)" stroke="rgb(162,162,162)" stroke-width="1" opacity="1.0" d="M 83.5 102.0 L 85.5 105.0 L 83.5 102.0 Z" /><path desc="l 0 p 86" fill="rgb(162,162,162)" stroke="rgb(162,162,162)" stroke-width="1" opacity="1.0" d="M 68.5 103.0 L 69.5 105.0 L 68.5 103.0 Z" /><path desc="l 5 p 76" fill="rgb(173,173,173)" stroke="rgb(173,173,173)" stroke-width="1" opacity="1.0" d="M 70.5 105.0 L 74.0 107.5 L 71.5 108.0 L 70.5 105.0 Z" /><path desc="l 3 p 51" fill="rgb(119,119,119)" stroke="rgb(119,119,119)" stroke-width="1" opacity="1.0" d="M 76.5 105.0 L 77.5 107.0 L 77.5 109.0 L 76.5 107.0 L 76.5 105.0 Z" /><path desc="l 0 p 87" fill="rgb(162,162,162)" stroke="rgb(162,162,162)" stroke-width="1" opacity="1.0" d="M 77.5 105.0 L 83.0 108.5 L 81.5 108.0 Q 77.5 107.5 77.5 105.0 Z" /><path desc="l 0 p 88" fill="rgb(162,162,162)" stroke="rgb(162,162,162)" stroke-width="1" opacity="1.0" d="M 73.5 106.0 L 77.0 108.5 L 75.5 108.0 L 73.5 106.0 Z" /><path desc="l 5 p 77" fill="rgb(173,173,173)" stroke="rgb(173,173,173)" stroke-width="1" opacity="1.0" d="M 82.5 106.0 L 83.5 108.0 L 86.0 108.5 L 85.5 110.0 L 82.0 107.5 L 82.5 106.0 Z" /><path desc="l 5 p 78" fill="rgb(173,173,173)" stroke="rgb(173,173,173)" stroke-width="1" opacity="1.0" d="M 77.5 109.0 L 78.5 111.0 L 77.0 110.5 L 77.5 109.0 Z" /><path desc="l 0 p 89" fill="rgb(162,162,162)" stroke="rgb(162,162,162)" stroke-width="1" opacity="1.0" d="M 78.5 109.0 L 82.0 111.5 L 80.5 111.0 L 78.5 109.0 Z" /><path desc="l 3 p 52" fill="rgb(119,119,119)" stroke="rgb(119,119,119)" stroke-width="1" opacity="1.0" d="M 83.5 109.0 L 84.5 111.0 L 83.5 109.0 Z" /><path desc="l 0 p 90" fill="rgb(162,162,162)" stroke="rgb(162,162,162)" stroke-width="1" opacity="1.0" d="M 84.5 109.0 L 88.0 111.5 L 86.5 111.0 L 84.5 109.0 Z" /><path desc="l 3 p 53" fill="rgb(119,119,119)" stroke="rgb(119,119,119)" stroke-width="1" opacity="1.0" d="M 81.5 110.0 L 82.5 112.0 L 81.5 110.0 Z" /><path desc="l 0 p 91" fill="rgb(162,162,162)" stroke="rgb(162,162,162)" stroke-width="1" opacity="1.0" d="M 101.5 111.0 L 100.5 113.0 L 101.5 111.0 Z" /><path desc="l 0 p 92" fill="rgb(162,162,162)" stroke="rgb(162,162,162)" stroke-width="1" opacity="1.0" d="M 83.5 112.0 L 86.0 113.5 L 84.5 114.0 L 83.5 112.0 Z" /><path desc="l 0 p 93" fill="rgb(162,162,162)" stroke="rgb(162,162,162)" stroke-width="1" opacity="1.0" d="M 89.5 112.0 L 94.0 114.5 L 92.5 115.0 L 89.5 112.0 Z" /><path desc="l 0 p 94" fill="rgb(162,162,162)" stroke="rgb(162,162,162)" stroke-width="1" opacity="1.0" d="M 98.5 113.0 L 97.5 115.0 L 96.0 114.5 L 98.5 113.0 Z" /><path desc="l 3 p 54" fill="rgb(119,119,119)" stroke="rgb(119,119,119)" stroke-width="1" opacity="1.0" d="M 99.5 113.0 L 99.5 115.0 L 101.5 114.0 L 100.5 116.0 L 98.0 114.5 L 99.5 113.0 Z" /><path desc="l 5 p 79" fill="rgb(173,173,173)" stroke="rgb(173,173,173)" stroke-width="1" opacity="1.0" d="M 86.5 114.0 L 95.5 119.0 L 98.5 117.0 L 97.5 119.0 L 94.5 120.0 L 87.0 116.5 L 86.5 114.0 Z" /><path desc="l 0 p 95" fill="rgb(162,162,162)" stroke="rgb(162,162,162)" stroke-width="1" opacity="1.0" d="M 87.5 114.0 L 88.5 116.0 L 87.5 114.0 Z" /><path desc="l 3 p 55" fill="rgb(119,119,119)" stroke="rgb(119,119,119)" stroke-width="1" opacity="1.0" d="M 88.5 114.0 L 90.5 115.0 L 92.0 114.5 L 91.5 117.0 L 88.5 114.0 Z" /><path desc="l 0 p 96" fill="rgb(162,162,162)" stroke="rgb(162,162,162)" stroke-width="1" opacity="1.0" d="M 102.5 114.0 L 101.5 116.0 L 102.5 114.0 Z" /><path desc="l 0 p 97" fill="rgb(162,162,162)" stroke="rgb(162,162,162)" stroke-width="1" opacity="1.0" d="M 98.5 116.0 L 100.0 116.5 L 97.5 118.0 L 98.5 116.0 Z" /></svg>