<svg width="920" height="601" version="1.1" xmlns="http://www.w3.org/2000/svg" desc="Created with ImageTracer.java version 1.1.2" ><path desc="l 0 p 0" fill="rgb(255,255,255)" stroke="rgb(255,255,255)" stroke-width="1" opacity="0.0" d="M 0.5 0.0 L 920.0 0.5 L 919.5 601.0 L 0.0 600.5 L 0.5 0.0 Z" /><path desc="l 1 p 0" fill="rgb(0,0,0)" stroke="rgb(0,0,0)" stroke-width="1" opacity="0.00392156862745098" d="M 368.5 3.0 L 499.0 3.5 L 487.0 24.5 L 489.0 23.5 L 499.5 5.0 L 553.5 35.0 L 552.5 33.0 L 501.0 3.5 L 661.5 3.0 L 662.5 94.0 L 690.0 94.5 L 689.5 138.0 L 679.5 124.0 L 679.0 125.5 L 685.0 133.5 L 688.0 140.5 L 648.0 210.5 L 650.0 209.5 L 689.5 141.0 L 690.0 355.5 L 565.5 356.0 L 566.0 354.5 L 571.0 344.5 L 569.0 345.5 L 560.0 362.5 L 562.0 361.5 L 564.5 357.0 L 565.0 587.5 L 431.0 588.5 L 430.5 594.0 L 422.0 593.5 L 428.0 589.5 L 429.5 586.0 Q 431.3 588.8 433.0 584.5 L 483.0 496.5 L 481.0 497.5 L 430.5 585.0 Q 431.6 572.4 425.0 567.5 L 412.5 555.0 Q 407.8 550.8 398.0 551.5 L 404.0 540.5 L 402.0 541.5 L 395.5 553.0 L 390.0 555.5 Q 386.3 559.8 388.0 569.5 Q 392.0 580.5 400.5 587.0 L 412.0 593.5 L 387.5 594.0 L 387.0 551.5 L 393.0 550.5 L 392.5 544.0 L 349.0 544.5 L 348.5 552.0 L 340.0 551.5 L 346.0 547.5 L 380.0 488.5 L 378.0 489.5 L 348.5 541.0 Q 349.1 529.9 343.0 525.5 L 330.5 513.0 Q 325.4 508.6 315.0 509.5 L 326.0 489.5 L 324.0 490.5 L 312.5 511.0 L 308.0 513.5 Q 304.3 517.8 306.0 527.5 Q 310.0 538.5 318.5 545.0 L 330.0 551.5 L 305.5 552.0 L 305.0 509.5 L 311.0 508.5 L 310.5 497.0 L 270.0 497.5 L 269.5 505.0 L 227.0 504.5 L 227.5 480.0 Q 231.2 490.8 239.5 497.0 L 249.0 502.5 Q 252.3 505.7 260.5 504.0 L 267.0 499.5 L 268.5 496.0 L 272.0 493.5 L 301.0 441.5 L 299.0 442.5 L 269.5 494.0 Q 270.4 482.1 264.0 477.5 L 251.5 465.0 Q 246.4 460.6 236.0 461.5 L 246.0 442.5 L 244.0 443.5 L 236.0 457.5 L 231.5 464.0 L 229.0 465.5 L 227.5 469.0 L 227.0 461.5 L 231.0 460.5 L 231.5 356.0 L 295.0 356.5 L 283.0 377.5 L 285.0 376.5 L 309.0 333.5 L 307.0 334.5 L 295.5 355.0 L 295.0 229.5 L 368.0 228.5 L 368.5 3.0 Z" /><path desc="l 5 p 0" fill="rgb(0,0,0)" stroke="rgb(0,0,0)" stroke-width="1" opacity="0.6078431372549019" d="M 500.5 3.0 L 499.5 5.0 L 500.5 3.0 Z" /><path desc="l 14 p 0" fill="rgb(0,0,0)" stroke="rgb(0,0,0)" stroke-width="1" opacity="0.8196078431372549" d="M 500.5 4.0 L 503.0 5.5 L 501.5 5.0 L 500.5 4.0 Z" /><path desc="l 14 p 1" fill="rgb(0,0,0)" stroke="rgb(0,0,0)" stroke-width="1" opacity="0.8196078431372549" d="M 520.5 15.0 L 523.0 16.5 L 521.5 17.0 L 520.5 15.0 Z" /><path desc="l 14 p 2" fill="rgb(0,0,0)" stroke="rgb(0,0,0)" stroke-width="1" opacity="0.8196078431372549" d="M 526.5 19.0 L 529.0 20.5 L 527.5 20.0 L 526.5 19.0 Z" /><path desc="l 14 p 3" fill="rgb(0,0,0)" stroke="rgb(0,0,0)" stroke-width="1" opacity="0.8196078431372549" d="M 487.5 23.0 L 488.0 24.5 L 486.0 25.5 L 487.5 23.0 Z" /><path desc="l 14 p 4" fill="rgb(0,0,0)" stroke="rgb(0,0,0)" stroke-width="1" opacity="0.8196078431372549" d="M 546.5 30.0 L 549.0 31.5 L 547.5 32.0 L 546.5 30.0 Z" /><path desc="l 14 p 5" fill="rgb(0,0,0)" stroke="rgb(0,0,0)" stroke-width="1" opacity="0.8196078431372549" d="M 552.5 34.0 L 555.0 35.5 L 553.5 35.0 L 552.5 34.0 Z" /><path desc="l 14 p 6" fill="rgb(0,0,0)" stroke="rgb(0,0,0)" stroke-width="1" opacity="0.8196078431372549" d="M 476.5 43.0 L 476.0 44.5 L 475.5 46.0 L 475.0 44.5 L 476.5 43.0 Z" /><path desc="l 14 p 7" fill="rgb(0,0,0)" stroke="rgb(0,0,0)" stroke-width="1" opacity="0.8196078431372549" d="M 578.5 49.0 L 582.0 50.5 L 580.5 51.0 L 578.5 49.0 Z" /><path desc="l 14 p 8" fill="rgb(0,0,0)" stroke="rgb(0,0,0)" stroke-width="1" opacity="0.8196078431372549" d="M 604.5 64.0 L 608.0 65.5 L 606.5 66.0 L 604.5 64.0 Z" /><path desc="l 14 p 9" fill="rgb(0,0,0)" stroke="rgb(0,0,0)" stroke-width="1" opacity="0.8196078431372549" d="M 461.5 68.0 L 462.0 69.5 L 460.0 70.5 L 461.5 68.0 Z" /><path desc="l 14 p 10" fill="rgb(0,0,0)" stroke="rgb(0,0,0)" stroke-width="1" opacity="0.8196078431372549" d="M 611.5 68.0 L 614.0 69.5 L 612.5 69.0 L 611.5 68.0 Z" /><path desc="l 14 p 11" fill="rgb(0,0,0)" stroke="rgb(0,0,0)" stroke-width="1" opacity="0.8196078431372549" d="M 631.5 79.0 L 634.0 80.5 L 632.5 81.0 L 631.5 79.0 Z" /><path desc="l 14 p 12" fill="rgb(0,0,0)" stroke="rgb(0,0,0)" stroke-width="1" opacity="0.8196078431372549" d="M 637.5 83.0 L 640.0 84.5 L 638.5 84.0 L 637.5 83.0 Z" /><path desc="l 14 p 13" fill="rgb(0,0,0)" stroke="rgb(0,0,0)" stroke-width="1" opacity="0.8196078431372549" d="M 505.5 86.0 Q 508.5 87.5 505.5 89.0 L 503.5 90.0 L 504.5 88.0 L 506.0 87.5 L 505.5 86.0 Z" /><path desc="l 14 p 14" fill="rgb(0,0,0)" stroke="rgb(0,0,0)" stroke-width="1" opacity="0.8196078431372549" d="M 450.5 88.0 L 450.0 89.5 L 449.5 91.0 L 449.0 89.5 L 450.5 88.0 Z" /><path desc="l 8 p 0" fill="rgb(0,0,0)" stroke="rgb(0,0,0)" stroke-width="1" opacity="0.9058823529411765" d="M 507.5 88.0 L 506.5 90.0 L 507.5 88.0 Z" /><path desc="l 5 p 1" fill="rgb(0,0,0)" stroke="rgb(0,0,0)" stroke-width="1" opacity="0.6078431372549019" d="M 508.5 88.0 L 509.0 89.5 L 508.5 92.0 L 506.0 90.5 L 508.0 89.5 L 508.5 88.0 Z" /><path desc="l 14 p 15" fill="rgb(0,0,0)" stroke="rgb(0,0,0)" stroke-width="1" opacity="0.8196078431372549" d="M 657.5 94.0 L 660.0 95.5 L 658.5 96.0 L 657.5 94.0 Z" /><path desc="l 5 p 2" fill="rgb(0,0,0)" stroke="rgb(0,0,0)" stroke-width="1" opacity="0.6078431372549019" d="M 509.5 95.0 L 512.0 96.5 L 510.5 97.0 L 509.5 95.0 Z" /><path desc="l 14 p 16" fill="rgb(0,0,0)" stroke="rgb(0,0,0)" stroke-width="1" opacity="0.8196078431372549" d="M 660.5 97.0 L 662.0 97.5 L 660.0 98.5 L 659.5 100.0 L 659.0 98.5 L 660.5 97.0 Z" /><path desc="l 14 p 17" fill="rgb(0,0,0)" stroke="rgb(0,0,0)" stroke-width="1" opacity="0.8196078431372549" d="M 524.5 98.0 L 527.0 99.5 L 525.5 99.0 L 524.5 98.0 Z" /><path desc="l 5 p 3" fill="rgb(0,0,0)" stroke="rgb(0,0,0)" stroke-width="1" opacity="0.6078431372549019" d="M 660.5 98.0 L 663.0 98.5 L 660.5 99.0 L 660.5 98.0 Z" /><path desc="l 5 p 4" fill="rgb(0,0,0)" stroke="rgb(0,0,0)" stroke-width="1" opacity="0.6078431372549019" d="M 662.5 100.0 L 665.0 101.5 L 663.5 102.0 L 662.5 100.0 Z" /><path desc="l 8 p 1" fill="rgb(0,0,0)" stroke="rgb(0,0,0)" stroke-width="1" opacity="0.9058823529411765" d="M 514.5 102.0 L 515.5 104.0 L 514.5 102.0 Z" /><path desc="l 5 p 5" fill="rgb(0,0,0)" stroke="rgb(0,0,0)" stroke-width="1" opacity="0.6078431372549019" d="M 664.5 103.0 L 667.0 104.5 L 665.5 105.0 L 664.5 103.0 Z" /><path desc="l 5 p 6" fill="rgb(0,0,0)" stroke="rgb(0,0,0)" stroke-width="1" opacity="0.6078431372549019" d="M 666.5 106.0 L 669.0 107.5 L 667.5 108.0 L 666.5 106.0 Z" /><path desc="l 14 p 18" fill="rgb(0,0,0)" stroke="rgb(0,0,0)" stroke-width="1" opacity="0.8196078431372549" d="M 543.5 109.0 L 547.0 110.5 L 545.5 111.0 L 543.5 109.0 Z" /><path desc="l 5 p 7" fill="rgb(0,0,0)" stroke="rgb(0,0,0)" stroke-width="1" opacity="0.6078431372549019" d="M 668.5 109.0 L 671.0 110.5 L 669.5 111.0 L 668.5 109.0 Z" /><path desc="l 14 p 19" fill="rgb(0,0,0)" stroke="rgb(0,0,0)" stroke-width="1" opacity="0.8196078431372549" d="M 652.5 111.0 L 652.0 112.5 L 651.5 114.0 L 651.0 112.5 L 652.5 111.0 Z" /><path desc="l 8 p 2" fill="rgb(0,0,0)" stroke="rgb(0,0,0)" stroke-width="1" opacity="0.9058823529411765" d="M 670.5 111.0 L 671.5 113.0 L 670.5 111.0 Z" /><path desc="l 14 p 20" fill="rgb(0,0,0)" stroke="rgb(0,0,0)" stroke-width="1" opacity="0.8196078431372549" d="M 435.5 113.0 L 436.0 114.5 L 434.0 115.5 L 435.5 113.0 Z" /><path desc="l 14 p 21" fill="rgb(0,0,0)" stroke="rgb(0,0,0)" stroke-width="1" opacity="0.8196078431372549" d="M 489.5 113.0 L 490.0 114.5 L 488.0 115.5 L 489.5 113.0 Z" /><path desc="l 8 p 3" fill="rgb(0,0,0)" stroke="rgb(0,0,0)" stroke-width="1" opacity="0.9058823529411765" d="M 521.5 113.0 L 522.5 115.0 L 521.5 113.0 Z" /><path desc="l 8 p 4" fill="rgb(0,0,0)" stroke="rgb(0,0,0)" stroke-width="1" opacity="0.9058823529411765" d="M 672.5 114.0 L 673.5 116.0 L 672.5 114.0 Z" /><path desc="l 8 p 5" fill="rgb(0,0,0)" stroke="rgb(0,0,0)" stroke-width="1" opacity="0.9058823529411765" d="M 674.5 117.0 L 675.5 119.0 L 674.5 117.0 Z" /><path desc="l 5 p 8" fill="rgb(0,0,0)" stroke="rgb(0,0,0)" stroke-width="1" opacity="0.6078431372549019" d="M 525.5 120.0 L 528.0 121.5 L 526.5 121.0 L 525.5 120.0 Z" /><path desc="l 14 p 22" fill="rgb(0,0,0)" stroke="rgb(0,0,0)" stroke-width="1" opacity="0.8196078431372549" d="M 563.5 120.0 L 566.0 121.5 L 564.5 122.0 L 563.5 120.0 Z" /><path desc="l 8 p 6" fill="rgb(0,0,0)" stroke="rgb(0,0,0)" stroke-width="1" opacity="0.9058823529411765" d="M 676.5 120.0 L 677.5 122.0 L 676.5 120.0 Z" /><path desc="l 8 p 7" fill="rgb(0,0,0)" stroke="rgb(0,0,0)" stroke-width="1" opacity="0.9058823529411765" d="M 678.5 123.0 L 679.5 125.0 L 678.5 123.0 Z" /><path desc="l 5 p 9" fill="rgb(0,0,0)" stroke="rgb(0,0,0)" stroke-width="1" opacity="0.6078431372549019" d="M 528.5 125.0 L 531.0 126.5 L 529.5 127.0 L 528.5 125.0 Z" /><path desc="l 5 p 10" fill="rgb(0,0,0)" stroke="rgb(0,0,0)" stroke-width="1" opacity="0.6078431372549019" d="M 679.5 125.0 L 682.0 126.5 L 680.5 126.0 L 679.5 125.0 Z" /><path desc="l 5 p 11" fill="rgb(0,0,0)" stroke="rgb(0,0,0)" stroke-width="1" opacity="0.6078431372549019" d="M 681.5 128.0 L 684.0 129.5 L 682.5 129.0 L 681.5 128.0 Z" /><path desc="l 5 p 12" fill="rgb(0,0,0)" stroke="rgb(0,0,0)" stroke-width="1" opacity="0.6078431372549019" d="M 532.5 129.0 L 533.5 131.0 L 532.5 129.0 Z" /><path desc="l 14 p 23" fill="rgb(0,0,0)" stroke="rgb(0,0,0)" stroke-width="1" opacity="0.8196078431372549" d="M 641.5 130.0 L 640.5 132.0 L 641.5 130.0 Z" /><path desc="l 14 p 24" fill="rgb(0,0,0)" stroke="rgb(0,0,0)" stroke-width="1" opacity="0.8196078431372549" d="M 532.5 131.0 L 535.0 131.5 L 532.0 132.5 L 530.5 135.0 L 531.0 133.5 L 532.5 131.0 Z" /><path desc="l 14 p 25" fill="rgb(0,0,0)" stroke="rgb(0,0,0)" stroke-width="1" opacity="0.8196078431372549" d="M 582.5 131.0 L 585.0 132.5 L 582.5 137.0 L 583.0 135.5 L 584.0 133.5 L 582.5 131.0 Z" /><path desc="l 5 p 13" fill="rgb(0,0,0)" stroke="rgb(0,0,0)" stroke-width="1" opacity="0.6078431372549019" d="M 683.5 131.0 L 686.0 132.5 L 684.5 132.0 L 683.5 131.0 Z" /><path desc="l 14 p 26" fill="rgb(0,0,0)" stroke="rgb(0,0,0)" stroke-width="1" opacity="0.8196078431372549" d="M 424.5 133.0 L 424.0 134.5 L 423.5 136.0 L 423.0 134.5 L 424.5 133.0 Z" /><path desc="l 5 p 14" fill="rgb(0,0,0)" stroke="rgb(0,0,0)" stroke-width="1" opacity="0.6078431372549019" d="M 585.5 133.0 L 584.5 135.0 L 585.5 133.0 Z" /><path desc="l 5 p 15" fill="rgb(0,0,0)" stroke="rgb(0,0,0)" stroke-width="1" opacity="0.6078431372549019" d="M 685.5 134.0 L 688.0 135.5 L 686.5 135.0 L 685.5 134.0 Z" /><path desc="l 5 p 16" fill="rgb(0,0,0)" stroke="rgb(0,0,0)" stroke-width="1" opacity="0.6078431372549019" d="M 687.5 137.0 L 690.0 138.5 L 689.5 141.0 L 688.5 138.0 L 687.5 137.0 Z" /><path desc="l 14 p 27" fill="rgb(0,0,0)" stroke="rgb(0,0,0)" stroke-width="1" opacity="0.8196078431372549" d="M 474.5 139.0 L 475.0 140.5 L 473.0 141.5 L 474.5 139.0 Z" /><path desc="l 14 p 28" fill="rgb(0,0,0)" stroke="rgb(0,0,0)" stroke-width="1" opacity="0.8196078431372549" d="M 554.5 143.0 L 555.5 145.0 L 554.5 143.0 Z" /><path desc="l 14 p 29" fill="rgb(0,0,0)" stroke="rgb(0,0,0)" stroke-width="1" opacity="0.8196078431372549" d="M 630.5 149.0 L 629.5 151.0 L 630.5 149.0 Z" /><path desc="l 14 p 30" fill="rgb(0,0,0)" stroke="rgb(0,0,0)" stroke-width="1" opacity="0.8196078431372549" d="M 520.5 152.0 L 520.0 153.5 L 519.5 155.0 L 519.0 153.5 L 520.5 152.0 Z" /><path desc="l 14 p 31" fill="rgb(0,0,0)" stroke="rgb(0,0,0)" stroke-width="1" opacity="0.8196078431372549" d="M 570.5 153.0 L 573.0 153.5 L 570.5 154.0 L 570.5 153.0 Z" /><path desc="l 14 p 32" fill="rgb(0,0,0)" stroke="rgb(0,0,0)" stroke-width="1" opacity="0.8196078431372549" d="M 681.5 153.0 L 681.0 154.5 L 680.5 156.0 L 680.0 154.5 L 681.5 153.0 Z" /><path desc="l 5 p 17" fill="rgb(0,0,0)" stroke="rgb(0,0,0)" stroke-width="1" opacity="0.6078431372549019" d="M 571.5 154.0 L 572.5 156.0 L 571.5 154.0 Z" /><path desc="l 14 p 33" fill="rgb(0,0,0)" stroke="rgb(0,0,0)" stroke-width="1" opacity="0.8196078431372549" d="M 409.5 158.0 L 410.0 159.5 L 408.0 160.5 L 409.5 158.0 Z" /><path desc="l 14 p 34" fill="rgb(0,0,0)" stroke="rgb(0,0,0)" stroke-width="1" opacity="0.8196078431372549" d="M 568.5 160.0 L 569.0 161.5 L 567.0 162.5 L 568.5 160.0 Z" /><path desc="l 14 p 35" fill="rgb(0,0,0)" stroke="rgb(0,0,0)" stroke-width="1" opacity="0.8196078431372549" d="M 459.5 166.0 L 459.0 167.5 L 458.5 169.0 L 458.0 167.5 L 459.5 166.0 Z" /><path desc="l 14 p 36" fill="rgb(0,0,0)" stroke="rgb(0,0,0)" stroke-width="1" opacity="0.8196078431372549" d="M 619.5 167.0 L 620.0 168.5 L 618.0 169.5 L 619.5 167.0 Z" /><path desc="l 14 p 37" fill="rgb(0,0,0)" stroke="rgb(0,0,0)" stroke-width="1" opacity="0.8196078431372549" d="M 670.5 172.0 L 670.0 173.5 L 669.5 175.0 L 669.0 173.5 L 670.5 172.0 Z" /><path desc="l 14 p 38" fill="rgb(0,0,0)" stroke="rgb(0,0,0)" stroke-width="1" opacity="0.8196078431372549" d="M 505.5 177.0 L 506.0 178.5 L 504.0 179.5 L 505.5 177.0 Z" /><path desc="l 14 p 39" fill="rgb(0,0,0)" stroke="rgb(0,0,0)" stroke-width="1" opacity="0.8196078431372549" d="M 398.5 178.0 L 397.5 180.0 L 398.5 178.0 Z" /><path desc="l 14 p 40" fill="rgb(0,0,0)" stroke="rgb(0,0,0)" stroke-width="1" opacity="0.8196078431372549" d="M 553.5 186.0 L 554.0 187.5 L 552.0 188.5 L 553.5 186.0 Z" /><path desc="l 14 p 41" fill="rgb(0,0,0)" stroke="rgb(0,0,0)" stroke-width="1" opacity="0.8196078431372549" d="M 659.5 191.0 L 659.0 192.5 L 658.5 194.0 L 658.0 192.5 L 659.5 191.0 Z" /><path desc="l 14 p 42" fill="rgb(0,0,0)" stroke="rgb(0,0,0)" stroke-width="1" opacity="0.8196078431372549" d="M 444.5 192.0 L 444.0 193.5 L 443.5 195.0 L 443.0 193.5 L 444.5 192.0 Z" /><path desc="l 14 p 43" fill="rgb(0,0,0)" stroke="rgb(0,0,0)" stroke-width="1" opacity="0.8196078431372549" d="M 387.5 197.0 L 387.0 198.5 L 386.5 200.0 L 386.0 198.5 L 387.5 197.0 Z" /><path desc="l 14 p 44" fill="rgb(0,0,0)" stroke="rgb(0,0,0)" stroke-width="1" opacity="0.8196078431372549" d="M 601.5 199.0 L 601.0 200.5 L 600.5 202.0 L 600.0 200.5 L 601.5 199.0 Z" /><path desc="l 14 p 45" fill="rgb(0,0,0)" stroke="rgb(0,0,0)" stroke-width="1" opacity="0.8196078431372549" d="M 490.5 203.0 L 491.0 204.5 L 489.0 205.5 L 490.5 203.0 Z" /><path desc="l 14 p 46" fill="rgb(0,0,0)" stroke="rgb(0,0,0)" stroke-width="1" opacity="0.8196078431372549" d="M 648.5 210.0 L 648.0 211.5 L 647.5 213.0 L 647.0 211.5 L 648.5 210.0 Z" /><path desc="l 14 p 47" fill="rgb(0,0,0)" stroke="rgb(0,0,0)" stroke-width="1" opacity="0.8196078431372549" d="M 538.5 213.0 L 538.0 214.5 L 537.5 216.0 L 537.0 214.5 L 538.5 213.0 Z" /><path desc="l 14 p 48" fill="rgb(0,0,0)" stroke="rgb(0,0,0)" stroke-width="1" opacity="0.8196078431372549" d="M 429.5 218.0 L 429.0 219.5 L 428.5 221.0 L 428.0 219.5 L 429.5 218.0 Z" /><path desc="l 14 p 49" fill="rgb(0,0,0)" stroke="rgb(0,0,0)" stroke-width="1" opacity="0.8196078431372549" d="M 590.5 218.0 L 590.0 219.5 L 589.5 221.0 L 589.0 219.5 L 590.5 218.0 Z" /><path desc="l 14 p 50" fill="rgb(0,0,0)" stroke="rgb(0,0,0)" stroke-width="1" opacity="0.8196078431372549" d="M 372.5 222.0 L 373.0 223.5 L 371.0 224.5 L 372.5 222.0 Z" /><path desc="l 14 p 51" fill="rgb(0,0,0)" stroke="rgb(0,0,0)" stroke-width="1" opacity="0.8196078431372549" d="M 479.5 223.0 L 479.0 224.5 L 478.5 226.0 L 478.0 224.5 L 479.5 223.0 Z" /><path desc="l 14 p 52" fill="rgb(0,0,0)" stroke="rgb(0,0,0)" stroke-width="1" opacity="0.8196078431372549" d="M 425.5 224.0 L 426.0 225.5 L 424.0 226.5 L 425.5 224.0 Z" /><path desc="l 14 p 53" fill="rgb(0,0,0)" stroke="rgb(0,0,0)" stroke-width="1" opacity="0.8196078431372549" d="M 637.5 229.0 L 637.0 230.5 L 636.5 232.0 L 636.0 230.5 L 637.5 229.0 Z" /><path desc="l 14 p 54" fill="rgb(0,0,0)" stroke="rgb(0,0,0)" stroke-width="1" opacity="0.8196078431372549" d="M 579.5 237.0 L 578.5 239.0 L 579.5 237.0 Z" /><path desc="l 14 p 55" fill="rgb(0,0,0)" stroke="rgb(0,0,0)" stroke-width="1" opacity="0.8196078431372549" d="M 523.5 239.0 L 523.0 240.5 L 522.5 242.0 L 522.0 240.5 L 523.5 239.0 Z" /><path desc="l 14 p 56" fill="rgb(0,0,0)" stroke="rgb(0,0,0)" stroke-width="1" opacity="0.8196078431372549" d="M 361.5 242.0 L 361.0 243.5 L 360.5 245.0 L 360.0 243.5 L 361.5 242.0 Z" /><path desc="l 14 p 57" fill="rgb(0,0,0)" stroke="rgb(0,0,0)" stroke-width="1" opacity="0.8196078431372549" d="M 626.5 248.0 L 626.0 249.5 L 625.5 251.0 L 625.0 249.5 L 626.5 248.0 Z" /><path desc="l 14 p 58" fill="rgb(0,0,0)" stroke="rgb(0,0,0)" stroke-width="1" opacity="0.8196078431372549" d="M 464.5 249.0 L 463.5 251.0 L 464.5 249.0 Z" /><path desc="l 14 p 59" fill="rgb(0,0,0)" stroke="rgb(0,0,0)" stroke-width="1" opacity="0.8196078431372549" d="M 410.5 250.0 L 411.0 251.5 L 409.0 252.5 L 410.5 250.0 Z" /><path desc="l 14 p 60" fill="rgb(0,0,0)" stroke="rgb(0,0,0)" stroke-width="1" opacity="0.8196078431372549" d="M 568.5 255.0 L 569.0 256.5 L 567.0 257.5 L 568.5 255.0 Z" /><path desc="l 14 p 61" fill="rgb(0,0,0)" stroke="rgb(0,0,0)" stroke-width="1" opacity="0.8196078431372549" d="M 508.5 265.0 L 508.0 266.5 L 507.5 268.0 L 507.0 266.5 L 508.5 265.0 Z" /><path desc="l 14 p 62" fill="rgb(0,0,0)" stroke="rgb(0,0,0)" stroke-width="1" opacity="0.8196078431372549" d="M 346.5 267.0 L 347.0 268.5 L 345.0 269.5 L 346.5 267.0 Z" /><path desc="l 14 p 63" fill="rgb(0,0,0)" stroke="rgb(0,0,0)" stroke-width="1" opacity="0.8196078431372549" d="M 615.5 267.0 L 615.0 268.5 L 614.5 270.0 L 614.0 268.5 L 615.5 267.0 Z" /><path desc="l 14 p 64" fill="rgb(0,0,0)" stroke="rgb(0,0,0)" stroke-width="1" opacity="0.8196078431372549" d="M 504.5 271.0 L 505.0 272.5 L 503.0 273.5 L 504.5 271.0 Z" /><path desc="l 14 p 65" fill="rgb(0,0,0)" stroke="rgb(0,0,0)" stroke-width="1" opacity="0.8196078431372549" d="M 449.5 274.0 L 450.0 275.5 L 448.0 276.5 L 449.5 274.0 Z" /><path desc="l 14 p 66" fill="rgb(0,0,0)" stroke="rgb(0,0,0)" stroke-width="1" opacity="0.8196078431372549" d="M 395.5 277.0 L 394.5 279.0 L 395.5 277.0 Z" /><path desc="l 14 p 67" fill="rgb(0,0,0)" stroke="rgb(0,0,0)" stroke-width="1" opacity="0.8196078431372549" d="M 604.5 286.0 L 604.0 287.5 L 603.5 289.0 L 603.0 287.5 L 604.5 286.0 Z" /><path desc="l 14 p 68" fill="rgb(0,0,0)" stroke="rgb(0,0,0)" stroke-width="1" opacity="0.8196078431372549" d="M 335.5 287.0 L 335.0 288.5 L 334.5 290.0 L 334.0 288.5 L 335.5 287.0 Z" /><path desc="l 14 p 69" fill="rgb(0,0,0)" stroke="rgb(0,0,0)" stroke-width="1" opacity="0.8196078431372549" d="M 550.5 287.0 L 550.0 288.5 L 549.5 290.0 L 549.0 288.5 L 550.5 287.0 Z" /><path desc="l 14 p 70" fill="rgb(0,0,0)" stroke="rgb(0,0,0)" stroke-width="1" opacity="0.8196078431372549" d="M 438.5 294.0 L 438.0 295.5 L 437.5 297.0 L 437.0 295.5 L 438.5 294.0 Z" /><path desc="l 14 p 71" fill="rgb(0,0,0)" stroke="rgb(0,0,0)" stroke-width="1" opacity="0.8196078431372549" d="M 489.5 297.0 L 490.0 298.5 L 488.0 299.5 L 489.5 297.0 Z" /><path desc="l 14 p 72" fill="rgb(0,0,0)" stroke="rgb(0,0,0)" stroke-width="1" opacity="0.8196078431372549" d="M 380.5 303.0 L 380.0 304.5 L 379.5 306.0 L 379.0 304.5 L 380.5 303.0 Z" /><path desc="l 14 p 73" fill="rgb(0,0,0)" stroke="rgb(0,0,0)" stroke-width="1" opacity="0.8196078431372549" d="M 593.5 305.0 L 593.0 306.5 L 592.5 308.0 L 592.0 306.5 L 593.5 305.0 Z" /><path desc="l 14 p 74" fill="rgb(0,0,0)" stroke="rgb(0,0,0)" stroke-width="1" opacity="0.8196078431372549" d="M 539.5 306.0 L 539.0 307.5 L 538.5 309.0 L 538.0 307.5 L 539.5 306.0 Z" /><path desc="l 14 p 75" fill="rgb(0,0,0)" stroke="rgb(0,0,0)" stroke-width="1" opacity="0.8196078431372549" d="M 320.5 312.0 L 321.0 313.5 L 319.0 314.5 L 320.5 312.0 Z" /><path desc="l 14 p 76" fill="rgb(0,0,0)" stroke="rgb(0,0,0)" stroke-width="1" opacity="0.8196078431372549" d="M 423.5 320.0 L 422.5 322.0 L 423.5 320.0 Z" /><path desc="l 14 p 77" fill="rgb(0,0,0)" stroke="rgb(0,0,0)" stroke-width="1" opacity="0.8196078431372549" d="M 474.5 324.0 L 473.5 326.0 L 474.5 324.0 Z" /><path desc="l 14 p 78" fill="rgb(0,0,0)" stroke="rgb(0,0,0)" stroke-width="1" opacity="0.8196078431372549" d="M 582.5 324.0 L 581.5 326.0 L 582.5 324.0 Z" /><path desc="l 14 p 79" fill="rgb(0,0,0)" stroke="rgb(0,0,0)" stroke-width="1" opacity="0.8196078431372549" d="M 528.5 325.0 L 527.5 327.0 L 528.5 325.0 Z" /><path desc="l 14 p 80" fill="rgb(0,0,0)" stroke="rgb(0,0,0)" stroke-width="1" opacity="0.8196078431372549" d="M 365.5 329.0 L 365.0 330.5 L 364.5 332.0 L 364.0 330.5 L 365.5 329.0 Z" /><path desc="l 14 p 81" fill="rgb(0,0,0)" stroke="rgb(0,0,0)" stroke-width="1" opacity="0.8196078431372549" d="M 309.5 332.0 L 308.5 334.0 L 309.5 332.0 Z" /><path desc="l 14 p 82" fill="rgb(0,0,0)" stroke="rgb(0,0,0)" stroke-width="1" opacity="0.8196078431372549" d="M 361.5 335.0 L 362.0 336.5 L 360.0 337.5 L 361.5 335.0 Z" /><path desc="l 14 p 83" fill="rgb(0,0,0)" stroke="rgb(0,0,0)" stroke-width="1" opacity="0.8196078431372549" d="M 517.5 343.0 L 518.0 344.5 L 516.0 345.5 L 517.5 343.0 Z" /><path desc="l 14 p 84" fill="rgb(0,0,0)" stroke="rgb(0,0,0)" stroke-width="1" opacity="0.8196078431372549" d="M 571.5 343.0 L 570.5 345.0 L 571.5 343.0 Z" /><path desc="l 14 p 85" fill="rgb(0,0,0)" stroke="rgb(0,0,0)" stroke-width="1" opacity="0.8196078431372549" d="M 408.5 345.0 L 409.0 346.5 L 407.0 347.5 L 408.5 345.0 Z" /><path desc="l 14 p 86" fill="rgb(0,0,0)" stroke="rgb(0,0,0)" stroke-width="1" opacity="0.8196078431372549" d="M 459.5 350.0 L 459.0 351.5 L 458.5 353.0 L 458.0 351.5 L 459.5 350.0 Z" /><path desc="l 14 p 87" fill="rgb(0,0,0)" stroke="rgb(0,0,0)" stroke-width="1" opacity="0.8196078431372549" d="M 298.5 351.0 L 298.0 352.5 L 297.5 354.0 L 297.0 352.5 L 298.5 351.0 Z" /><path desc="l 14 p 88" fill="rgb(0,0,0)" stroke="rgb(0,0,0)" stroke-width="1" opacity="0.8196078431372549" d="M 350.5 355.0 L 350.0 356.5 L 349.5 358.0 L 349.0 356.5 L 350.5 355.0 Z" /><path desc="l 14 p 89" fill="rgb(0,0,0)" stroke="rgb(0,0,0)" stroke-width="1" opacity="0.8196078431372549" d="M 346.5 361.0 L 347.0 362.5 L 345.0 363.5 L 346.5 361.0 Z" /><path desc="l 14 p 90" fill="rgb(0,0,0)" stroke="rgb(0,0,0)" stroke-width="1" opacity="0.8196078431372549" d="M 506.5 362.0 L 507.0 363.5 L 505.0 364.5 L 506.5 362.0 Z" /><path desc="l 14 p 91" fill="rgb(0,0,0)" stroke="rgb(0,0,0)" stroke-width="1" opacity="0.8196078431372549" d="M 560.5 362.0 L 559.5 364.0 L 560.5 362.0 Z" /><path desc="l 14 p 92" fill="rgb(0,0,0)" stroke="rgb(0,0,0)" stroke-width="1" opacity="0.8196078431372549" d="M 397.5 365.0 L 397.0 366.5 L 396.5 368.0 L 396.0 366.5 L 397.5 365.0 Z" /><path desc="l 14 p 93" fill="rgb(0,0,0)" stroke="rgb(0,0,0)" stroke-width="1" opacity="0.8196078431372549" d="M 283.5 376.0 L 284.0 377.5 L 282.0 378.5 L 283.5 376.0 Z" /><path desc="l 14 p 94" fill="rgb(0,0,0)" stroke="rgb(0,0,0)" stroke-width="1" opacity="0.8196078431372549" d="M 444.5 376.0 L 444.0 377.5 L 443.5 379.0 L 443.0 377.5 L 444.5 376.0 Z" /><path desc="l 14 p 95" fill="rgb(0,0,0)" stroke="rgb(0,0,0)" stroke-width="1" opacity="0.8196078431372549" d="M 549.5 381.0 L 548.5 383.0 L 549.5 381.0 Z" /><path desc="l 14 p 96" fill="rgb(0,0,0)" stroke="rgb(0,0,0)" stroke-width="1" opacity="0.8196078431372549" d="M 440.5 382.0 L 441.0 383.5 L 439.0 384.5 L 440.5 382.0 Z" /><path desc="l 14 p 97" fill="rgb(0,0,0)" stroke="rgb(0,0,0)" stroke-width="1" opacity="0.8196078431372549" d="M 331.5 387.0 L 332.0 388.5 L 330.0 389.5 L 331.5 387.0 Z" /><path desc="l 14 p 98" fill="rgb(0,0,0)" stroke="rgb(0,0,0)" stroke-width="1" opacity="0.8196078431372549" d="M 382.5 391.0 L 382.0 392.5 L 381.5 394.0 L 381.0 392.5 L 382.5 391.0 Z" /><path desc="l 14 p 99" fill="rgb(0,0,0)" stroke="rgb(0,0,0)" stroke-width="1" opacity="0.8196078431372549" d="M 488.5 394.0 L 488.0 395.5 L 487.5 397.0 L 487.0 395.5 L 488.5 394.0 Z" /><path desc="l 14 p 100" fill="rgb(0,0,0)" stroke="rgb(0,0,0)" stroke-width="1" opacity="0.8196078431372549" d="M 272.5 396.0 L 272.0 397.5 L 271.5 399.0 L 271.0 397.5 L 272.5 396.0 Z" /><path desc="l 14 p 101" fill="rgb(0,0,0)" stroke="rgb(0,0,0)" stroke-width="1" opacity="0.8196078431372549" d="M 538.5 400.0 L 537.5 402.0 L 538.5 400.0 Z" /><path desc="l 14 p 102" fill="rgb(0,0,0)" stroke="rgb(0,0,0)" stroke-width="1" opacity="0.8196078431372549" d="M 429.5 402.0 L 429.0 403.5 L 428.5 405.0 L 428.0 403.5 L 429.5 402.0 Z" /><path desc="l 14 p 103" fill="rgb(0,0,0)" stroke="rgb(0,0,0)" stroke-width="1" opacity="0.8196078431372549" d="M 425.5 408.0 L 426.0 409.5 L 424.0 410.5 L 425.5 408.0 Z" /><path desc="l 14 p 104" fill="rgb(0,0,0)" stroke="rgb(0,0,0)" stroke-width="1" opacity="0.8196078431372549" d="M 477.5 413.0 L 476.5 415.0 L 477.5 413.0 Z" /><path desc="l 14 p 105" fill="rgb(0,0,0)" stroke="rgb(0,0,0)" stroke-width="1" opacity="0.8196078431372549" d="M 316.5 414.0 L 315.5 416.0 L 316.5 414.0 Z" /><path desc="l 14 p 106" fill="rgb(0,0,0)" stroke="rgb(0,0,0)" stroke-width="1" opacity="0.8196078431372549" d="M 367.5 416.0 L 368.0 417.5 L 366.0 418.5 L 367.5 416.0 Z" /><path desc="l 14 p 107" fill="rgb(0,0,0)" stroke="rgb(0,0,0)" stroke-width="1" opacity="0.8196078431372549" d="M 527.5 418.0 L 528.0 419.5 L 526.0 420.5 L 527.5 418.0 Z" /><path desc="l 14 p 108" fill="rgb(0,0,0)" stroke="rgb(0,0,0)" stroke-width="1" opacity="0.8196078431372549" d="M 257.5 421.0 L 258.0 422.5 L 256.0 423.5 L 257.5 421.0 Z" /><path desc="l 14 p 109" fill="rgb(0,0,0)" stroke="rgb(0,0,0)" stroke-width="1" opacity="0.8196078431372549" d="M 466.5 431.0 L 467.0 432.5 L 465.0 433.5 L 466.5 431.0 Z" /><path desc="l 14 p 110" fill="rgb(0,0,0)" stroke="rgb(0,0,0)" stroke-width="1" opacity="0.8196078431372549" d="M 410.5 434.0 L 411.0 435.5 L 409.0 436.5 L 410.5 434.0 Z" /><path desc="l 14 p 111" fill="rgb(0,0,0)" stroke="rgb(0,0,0)" stroke-width="1" opacity="0.8196078431372549" d="M 516.5 437.0 L 517.0 438.5 L 515.0 439.5 L 516.5 437.0 Z" /><path desc="l 14 p 112" fill="rgb(0,0,0)" stroke="rgb(0,0,0)" stroke-width="1" opacity="0.8196078431372549" d="M 301.5 440.0 L 301.0 441.5 L 300.5 443.0 L 300.0 441.5 L 301.5 440.0 Z" /><path desc="l 14 p 113" fill="rgb(0,0,0)" stroke="rgb(0,0,0)" stroke-width="1" opacity="0.8196078431372549" d="M 246.5 441.0 L 246.0 442.5 L 245.5 444.0 L 245.0 442.5 L 246.5 441.0 Z" /><path desc="l 14 p 114" fill="rgb(0,0,0)" stroke="rgb(0,0,0)" stroke-width="1" opacity="0.8196078431372549" d="M 352.5 442.0 L 353.0 443.5 L 351.0 444.5 L 352.5 442.0 Z" /><path desc="l 14 p 115" fill="rgb(0,0,0)" stroke="rgb(0,0,0)" stroke-width="1" opacity="0.8196078431372549" d="M 455.5 450.0 L 456.0 451.5 L 454.0 452.5 L 455.5 450.0 Z" /><path desc="l 14 p 116" fill="rgb(0,0,0)" stroke="rgb(0,0,0)" stroke-width="1" opacity="0.8196078431372549" d="M 505.5 456.0 L 506.0 457.5 L 504.0 458.5 L 505.5 456.0 Z" /><path desc="l 5 p 18" fill="rgb(0,0,0)" stroke="rgb(0,0,0)" stroke-width="1" opacity="0.6078431372549019" d="M 235.5 461.0 L 236.5 463.0 L 235.0 462.5 L 235.5 461.0 Z" /><path desc="l 14 p 117" fill="rgb(0,0,0)" stroke="rgb(0,0,0)" stroke-width="1" opacity="0.8196078431372549" d="M 395.5 461.0 L 394.5 463.0 L 395.5 461.0 Z" /><path desc="l 5 p 19" fill="rgb(0,0,0)" stroke="rgb(0,0,0)" stroke-width="1" opacity="0.6078431372549019" d="M 233.5 462.0 L 232.5 464.0 L 233.5 462.0 Z" /><path desc="l 3 p 0" fill="rgb(0,0,0)" stroke="rgb(0,0,0)" stroke-width="1" opacity="0.996078431372549" d="M 240.5 462.0 Q 250.6 462.9 255.0 469.5 L 266.0 480.5 L 269.0 490.5 L 268.0 493.5 Q 267.4 499.4 263.5 502.0 L 255.5 504.0 Q 240.4 500.6 233.0 489.5 Q 227.2 483.8 227.0 472.5 L 228.0 468.5 L 231.5 464.0 L 240.5 462.0 Z" /><path desc="l 14 p 118" fill="rgb(0,0,0)" stroke="rgb(0,0,0)" stroke-width="1" opacity="0.8196078431372549" d="M 341.5 462.0 L 341.0 463.5 L 340.5 465.0 L 340.0 463.5 L 341.5 462.0 Z" /><path desc="l 5 p 20" fill="rgb(0,0,0)" stroke="rgb(0,0,0)" stroke-width="1" opacity="0.6078431372549019" d="M 230.5 464.0 L 229.5 466.0 L 230.5 464.0 Z" /><path desc="l 1 p 1" fill="rgb(0,0,0)" stroke="rgb(0,0,0)" stroke-width="1" opacity="0.00392156862745098" d="M 237.5 465.0 Q 248.3 464.3 252.0 470.5 L 264.0 482.5 Q 266.9 486.1 266.0 493.5 L 261.5 500.0 L 253.5 501.0 Q 240.9 496.6 234.0 486.5 L 231.0 480.5 L 230.0 471.5 L 232.5 467.0 L 237.5 465.0 Z" /><path desc="l 5 p 21" fill="rgb(0,0,0)" stroke="rgb(0,0,0)" stroke-width="1" opacity="0.6078431372549019" d="M 251.5 465.0 L 253.5 468.0 L 251.5 465.0 Z" /><path desc="l 14 p 119" fill="rgb(0,0,0)" stroke="rgb(0,0,0)" stroke-width="1" opacity="0.8196078431372549" d="M 232.5 466.0 L 231.5 468.0 L 232.5 466.0 Z" /><path desc="l 14 p 120" fill="rgb(0,0,0)" stroke="rgb(0,0,0)" stroke-width="1" opacity="0.8196078431372549" d="M 286.5 466.0 L 286.0 467.5 L 285.5 469.0 L 285.0 467.5 L 286.5 466.0 Z" /><path desc="l 14 p 121" fill="rgb(0,0,0)" stroke="rgb(0,0,0)" stroke-width="1" opacity="0.8196078431372549" d="M 254.5 468.0 L 263.5 478.0 L 254.5 468.0 Z" /><path desc="l 5 p 22" fill="rgb(0,0,0)" stroke="rgb(0,0,0)" stroke-width="1" opacity="0.6078431372549019" d="M 251.5 469.0 L 262.5 481.0 L 251.5 469.0 Z" /><path desc="l 14 p 122" fill="rgb(0,0,0)" stroke="rgb(0,0,0)" stroke-width="1" opacity="0.8196078431372549" d="M 282.5 472.0 L 283.0 473.5 L 281.0 474.5 L 282.5 472.0 Z" /><path desc="l 14 p 123" fill="rgb(0,0,0)" stroke="rgb(0,0,0)" stroke-width="1" opacity="0.8196078431372549" d="M 494.5 475.0 L 495.0 476.5 L 493.0 477.5 L 494.5 475.0 Z" /><path desc="l 5 p 23" fill="rgb(0,0,0)" stroke="rgb(0,0,0)" stroke-width="1" opacity="0.6078431372549019" d="M 264.5 478.0 L 265.5 480.0 L 264.5 478.0 Z" /><path desc="l 14 p 124" fill="rgb(0,0,0)" stroke="rgb(0,0,0)" stroke-width="1" opacity="0.8196078431372549" d="M 437.5 482.0 L 437.0 483.5 L 436.5 485.0 L 436.0 483.5 L 437.5 482.0 Z" /><path desc="l 14 p 125" fill="rgb(0,0,0)" stroke="rgb(0,0,0)" stroke-width="1" opacity="0.8196078431372549" d="M 380.5 487.0 L 380.0 488.5 L 379.5 490.0 L 379.0 488.5 L 380.5 487.0 Z" /><path desc="l 14 p 126" fill="rgb(0,0,0)" stroke="rgb(0,0,0)" stroke-width="1" opacity="0.8196078431372549" d="M 326.5 488.0 L 325.5 490.0 L 326.5 488.0 Z" /><path desc="l 5 p 24" fill="rgb(0,0,0)" stroke="rgb(0,0,0)" stroke-width="1" opacity="0.6078431372549019" d="M 236.5 489.0 L 240.5 494.0 L 236.5 489.0 Z" /><path desc="l 5 p 25" fill="rgb(0,0,0)" stroke="rgb(0,0,0)" stroke-width="1" opacity="0.6078431372549019" d="M 233.5 490.0 L 239.5 497.0 L 233.5 490.0 Z" /><path desc="l 5 p 26" fill="rgb(0,0,0)" stroke="rgb(0,0,0)" stroke-width="1" opacity="0.6078431372549019" d="M 268.5 494.0 L 270.0 494.5 L 269.5 496.0 L 268.0 495.5 L 268.5 494.0 Z" /><path desc="l 14 p 127" fill="rgb(0,0,0)" stroke="rgb(0,0,0)" stroke-width="1" opacity="0.8196078431372549" d="M 483.5 494.0 L 484.0 495.5 L 482.0 496.5 L 483.5 494.0 Z" /><path desc="l 14 p 128" fill="rgb(0,0,0)" stroke="rgb(0,0,0)" stroke-width="1" opacity="0.8196078431372549" d="M 263.5 498.0 L 262.5 500.0 L 263.5 498.0 Z" /><path desc="l 5 p 27" fill="rgb(0,0,0)" stroke="rgb(0,0,0)" stroke-width="1" opacity="0.6078431372549019" d="M 266.5 499.0 L 264.5 502.0 L 266.5 499.0 Z" /><path desc="l 14 p 129" fill="rgb(0,0,0)" stroke="rgb(0,0,0)" stroke-width="1" opacity="0.8196078431372549" d="M 426.5 501.0 L 425.5 503.0 L 426.5 501.0 Z" /><path desc="l 14 p 130" fill="rgb(0,0,0)" stroke="rgb(0,0,0)" stroke-width="1" opacity="0.8196078431372549" d="M 314.5 508.0 L 315.0 509.5 L 313.0 510.5 L 314.5 508.0 Z" /><path desc="l 5 p 28" fill="rgb(0,0,0)" stroke="rgb(0,0,0)" stroke-width="1" opacity="0.6078431372549019" d="M 313.5 509.0 L 316.0 510.5 L 314.5 511.0 L 313.5 509.0 Z" /><path desc="l 3 p 1" fill="rgb(0,0,0)" stroke="rgb(0,0,0)" stroke-width="1" opacity="0.996078431372549" d="M 319.5 510.0 Q 329.6 510.9 334.0 517.5 L 345.0 528.5 L 348.0 538.5 L 347.0 541.5 Q 346.4 547.4 342.5 550.0 L 334.5 552.0 Q 319.4 548.6 312.0 537.5 Q 306.2 531.8 306.0 520.5 L 307.0 516.5 L 310.5 512.0 L 319.5 510.0 Z" /><path desc="l 5 p 29" fill="rgb(0,0,0)" stroke="rgb(0,0,0)" stroke-width="1" opacity="0.6078431372549019" d="M 309.5 512.0 L 308.5 514.0 L 309.5 512.0 Z" /><path desc="l 1 p 2" fill="rgb(0,0,0)" stroke="rgb(0,0,0)" stroke-width="1" opacity="0.00392156862745098" d="M 316.5 513.0 Q 327.7 512.3 331.5 519.0 L 343.0 530.5 Q 345.9 534.1 345.0 541.5 L 340.5 548.0 L 332.5 549.0 Q 319.9 544.6 313.0 534.5 L 310.0 528.5 L 309.0 519.5 L 311.5 515.0 L 316.5 513.0 Z" /><path desc="l 5 p 30" fill="rgb(0,0,0)" stroke="rgb(0,0,0)" stroke-width="1" opacity="0.6078431372549019" d="M 330.5 513.0 L 332.5 516.0 L 330.5 513.0 Z" /><path desc="l 14 p 131" fill="rgb(0,0,0)" stroke="rgb(0,0,0)" stroke-width="1" opacity="0.8196078431372549" d="M 365.5 513.0 L 365.0 514.5 L 364.5 516.0 L 364.0 514.5 L 365.5 513.0 Z" /><path desc="l 14 p 132" fill="rgb(0,0,0)" stroke="rgb(0,0,0)" stroke-width="1" opacity="0.8196078431372549" d="M 472.5 513.0 L 473.0 514.5 L 471.0 515.5 L 472.5 513.0 Z" /><path desc="l 14 p 133" fill="rgb(0,0,0)" stroke="rgb(0,0,0)" stroke-width="1" opacity="0.8196078431372549" d="M 311.5 514.0 L 310.5 516.0 L 311.5 514.0 Z" /><path desc="l 14 p 134" fill="rgb(0,0,0)" stroke="rgb(0,0,0)" stroke-width="1" opacity="0.8196078431372549" d="M 333.5 516.0 L 342.5 526.0 L 333.5 516.0 Z" /><path desc="l 5 p 31" fill="rgb(0,0,0)" stroke="rgb(0,0,0)" stroke-width="1" opacity="0.6078431372549019" d="M 330.5 517.0 L 341.5 529.0 L 330.5 517.0 Z" /><path desc="l 14 p 135" fill="rgb(0,0,0)" stroke="rgb(0,0,0)" stroke-width="1" opacity="0.8196078431372549" d="M 361.5 519.0 L 362.0 520.5 L 360.0 521.5 L 361.5 519.0 Z" /><path desc="l 14 p 136" fill="rgb(0,0,0)" stroke="rgb(0,0,0)" stroke-width="1" opacity="0.8196078431372549" d="M 415.5 520.0 L 414.5 522.0 L 415.5 520.0 Z" /><path desc="l 5 p 32" fill="rgb(0,0,0)" stroke="rgb(0,0,0)" stroke-width="1" opacity="0.6078431372549019" d="M 343.5 526.0 L 344.5 528.0 L 343.5 526.0 Z" /><path desc="l 14 p 137" fill="rgb(0,0,0)" stroke="rgb(0,0,0)" stroke-width="1" opacity="0.8196078431372549" d="M 461.5 532.0 L 462.0 533.5 L 460.0 534.5 L 461.5 532.0 Z" /><path desc="l 5 p 33" fill="rgb(0,0,0)" stroke="rgb(0,0,0)" stroke-width="1" opacity="0.6078431372549019" d="M 315.5 537.0 L 319.5 542.0 L 315.5 537.0 Z" /><path desc="l 5 p 34" fill="rgb(0,0,0)" stroke="rgb(0,0,0)" stroke-width="1" opacity="0.6078431372549019" d="M 312.5 538.0 L 318.5 545.0 L 312.5 538.0 Z" /><path desc="l 14 p 138" fill="rgb(0,0,0)" stroke="rgb(0,0,0)" stroke-width="1" opacity="0.8196078431372549" d="M 404.5 538.0 L 405.0 539.5 L 403.0 540.5 L 404.5 538.0 Z" /><path desc="l 5 p 35" fill="rgb(0,0,0)" stroke="rgb(0,0,0)" stroke-width="1" opacity="0.6078431372549019" d="M 348.5 541.0 L 349.0 542.5 L 347.0 543.5 L 348.5 541.0 Z" /><path desc="l 14 p 139" fill="rgb(0,0,0)" stroke="rgb(0,0,0)" stroke-width="1" opacity="0.8196078431372549" d="M 342.5 546.0 L 341.5 548.0 L 342.5 546.0 Z" /><path desc="l 5 p 36" fill="rgb(0,0,0)" stroke="rgb(0,0,0)" stroke-width="1" opacity="0.6078431372549019" d="M 345.5 547.0 L 343.5 550.0 L 345.5 547.0 Z" /><path desc="l 8 p 8" fill="rgb(0,0,0)" stroke="rgb(0,0,0)" stroke-width="1" opacity="0.9058823529411765" d="M 397.5 551.0 L 396.5 553.0 L 397.5 551.0 Z" /><path desc="l 14 p 140" fill="rgb(0,0,0)" stroke="rgb(0,0,0)" stroke-width="1" opacity="0.8196078431372549" d="M 450.5 551.0 L 451.0 552.5 L 449.0 553.5 L 450.5 551.0 Z" /><path desc="l 14 p 141" fill="rgb(0,0,0)" stroke="rgb(0,0,0)" stroke-width="1" opacity="0.8196078431372549" d="M 397.5 552.0 L 400.0 552.5 L 397.5 553.0 L 397.5 552.0 Z" /><path desc="l 3 p 2" fill="rgb(0,0,0)" stroke="rgb(0,0,0)" stroke-width="1" opacity="0.996078431372549" d="M 401.5 552.0 Q 411.6 552.9 416.0 559.5 L 427.0 570.5 L 430.0 580.5 L 429.0 583.5 Q 428.4 589.4 424.5 592.0 L 416.5 594.0 Q 401.4 590.6 394.0 579.5 Q 388.2 573.8 388.0 562.5 L 389.0 558.5 L 392.5 554.0 L 401.5 552.0 Z" /><path desc="l 5 p 37" fill="rgb(0,0,0)" stroke="rgb(0,0,0)" stroke-width="1" opacity="0.6078431372549019" d="M 391.5 554.0 L 390.5 556.0 L 391.5 554.0 Z" /><path desc="l 1 p 3" fill="rgb(0,0,0)" stroke="rgb(0,0,0)" stroke-width="1" opacity="0.00392156862745098" d="M 398.5 555.0 Q 409.7 554.3 413.5 561.0 L 425.0 572.5 Q 427.9 576.1 427.0 583.5 L 422.5 590.0 L 414.5 591.0 Q 401.9 586.6 395.0 576.5 L 392.0 570.5 L 391.0 561.5 L 393.5 557.0 L 398.5 555.0 Z" /><path desc="l 5 p 38" fill="rgb(0,0,0)" stroke="rgb(0,0,0)" stroke-width="1" opacity="0.6078431372549019" d="M 412.5 555.0 L 414.5 558.0 L 412.5 555.0 Z" /><path desc="l 14 p 142" fill="rgb(0,0,0)" stroke="rgb(0,0,0)" stroke-width="1" opacity="0.8196078431372549" d="M 393.5 556.0 L 392.5 558.0 L 393.5 556.0 Z" /><path desc="l 14 p 143" fill="rgb(0,0,0)" stroke="rgb(0,0,0)" stroke-width="1" opacity="0.8196078431372549" d="M 415.5 558.0 L 424.5 568.0 L 415.5 558.0 Z" /><path desc="l 5 p 39" fill="rgb(0,0,0)" stroke="rgb(0,0,0)" stroke-width="1" opacity="0.6078431372549019" d="M 412.5 559.0 L 423.5 571.0 L 412.5 559.0 Z" /><path desc="l 5 p 40" fill="rgb(0,0,0)" stroke="rgb(0,0,0)" stroke-width="1" opacity="0.6078431372549019" d="M 425.5 568.0 L 426.5 570.0 L 425.5 568.0 Z" /><path desc="l 5 p 41" fill="rgb(0,0,0)" stroke="rgb(0,0,0)" stroke-width="1" opacity="0.6078431372549019" d="M 397.5 579.0 L 401.5 584.0 L 397.5 579.0 Z" /><path desc="l 5 p 42" fill="rgb(0,0,0)" stroke="rgb(0,0,0)" stroke-width="1" opacity="0.6078431372549019" d="M 394.5 580.0 L 400.5 587.0 L 394.5 580.0 Z" /><path desc="l 5 p 43" fill="rgb(0,0,0)" stroke="rgb(0,0,0)" stroke-width="1" opacity="0.6078431372549019" d="M 429.5 584.0 L 431.0 586.5 L 429.0 585.5 L 429.5 584.0 Z" /><path desc="l 14 p 144" fill="rgb(0,0,0)" stroke="rgb(0,0,0)" stroke-width="1" opacity="0.8196078431372549" d="M 424.5 588.0 L 423.5 590.0 L 424.5 588.0 Z" /><path desc="l 5 p 44" fill="rgb(0,0,0)" stroke="rgb(0,0,0)" stroke-width="1" opacity="0.6078431372549019" d="M 427.5 589.0 L 425.5 592.0 L 427.5 589.0 Z" /></svg>