<svg width="12" height="12" version="1.1" xmlns="http://www.w3.org/2000/svg" desc="Created with ImageTracer.java version 1.1.2" ><path desc="l 0 p 0" fill="rgb(0,0,0)" stroke="rgb(0,0,0)" stroke-width="1" opacity="1.0" d="M 0.5 0.0 L 12.0 0.5 L 11.5 12.0 L 0.0 11.5 L 0.5 0.0 Z" /><path desc="l 4 p 0" fill="rgb(255,255,0)" stroke="rgb(255,255,0)" stroke-width="1" opacity="1.0" d="M 4.5 1.0 Q 10.3 0.3 11.0 4.5 Q 11.8 10.3 7.5 11.0 Q 1.8 11.8 1.0 7.5 Q 0.3 1.8 4.5 1.0 Z" /><path desc="l 0 p 1" fill="rgb(0,0,0)" stroke="rgb(0,0,0)" stroke-width="1" opacity="1.0" d="M 3.5 4.0 L 5.0 4.5 L 4.5 6.0 L 3.0 5.5 L 3.5 4.0 Z" /><path desc="l 0 p 2" fill="rgb(0,0,0)" stroke="rgb(0,0,0)" stroke-width="1" opacity="1.0" d="M 7.5 4.0 L 9.0 4.5 L 8.5 6.0 L 7.0 5.5 L 7.5 4.0 Z" /><path desc="l 0 p 3" fill="rgb(0,0,0)" stroke="rgb(0,0,0)" stroke-width="1" opacity="1.0" d="M 3.5 7.0 L 7.5 8.0 L 9.0 7.5 Q 8.3 9.8 4.5 9.0 L 3.5 7.0 Z" /></svg>